<?xml version="1.0" encoding="UTF-8" standalone="no"?>
<!-- Created with Inkscape (http://www.inkscape.org/) -->

<svg
   xmlns:dc="http://purl.org/dc/elements/1.1/"
   xmlns:cc="http://creativecommons.org/ns#"
   xmlns:rdf="http://www.w3.org/1999/02/22-rdf-syntax-ns#"
   xmlns:svg="http://www.w3.org/2000/svg"
   xmlns="http://www.w3.org/2000/svg"
   xmlns:xlink="http://www.w3.org/1999/xlink"
   xmlns:sodipodi="http://sodipodi.sourceforge.net/DTD/sodipodi-0.dtd"
   xmlns:inkscape="http://www.inkscape.org/namespaces/inkscape"
   width="300mm"
   height="300mm"
   viewBox="0 0 300 300"
   version="1.1"
   id="svg8"
   inkscape:version="0.92.1 r15371"
   sodipodi:docname="校章.svg">
  <defs
     id="defs2" />
  <sodipodi:namedview
     id="base"
     pagecolor="#ffffff"
     bordercolor="#666666"
     borderopacity="1.0"
     inkscape:pageopacity="0.0"
     inkscape:pageshadow="2"
     inkscape:zoom="0.5"
     inkscape:cx="505.98581"
     inkscape:cy="629.63128"
     inkscape:document-units="mm"
     inkscape:current-layer="layer1"
     showgrid="false"
     inkscape:snap-bbox="true"
     inkscape:bbox-nodes="true"
     inkscape:snap-object-midpoints="true"
     inkscape:snap-smooth-nodes="true"
     inkscape:snap-intersection-paths="true"
     inkscape:object-paths="true"
     inkscape:snap-bbox-edge-midpoints="true"
     inkscape:snap-bbox-midpoints="true"
     inkscape:snap-nodes="true"
     inkscape:bbox-paths="true"
     inkscape:snap-midpoints="true"
     inkscape:snap-global="false"
     inkscape:window-width="1280"
     inkscape:window-height="737"
     inkscape:window-x="-8"
     inkscape:window-y="-8"
     inkscape:window-maximized="1" />
  <metadata
     id="metadata5">
    <rdf:RDF>
      <cc:Work
         rdf:about="">
        <dc:format>image/svg+xml</dc:format>
        <dc:type
           rdf:resource="http://purl.org/dc/dcmitype/StillImage" />
        <dc:title />
      </cc:Work>
    </rdf:RDF>
  </metadata>
  <g
     inkscape:label="レイヤー 1"
     inkscape:groupmode="layer"
     id="layer1"
     transform="translate(0,3)">
    <g
       id="g4941"
       transform="matrix(1.0491494,0,0,1.0491494,50.28559,-9.0565717)"
       style="fill:#ffc22d;fill-opacity:1">
      <path
         transform="matrix(0.26458333,0,0,0.26458333,0,-3)"
         inkscape:connector-curvature="0"
         id="path4920"
         d="m -588.92519,971.94129 c -4.18311,-11.00241 -1.23175,-22.74573 13.13513,-52.26407 17.57762,-36.11517 16.40764,-49.31739 -7.07646,-79.8517 -21.56148,-28.03453 -21.71839,-35.91616 -1.39494,-70.06659 18.04796,-30.32682 18.33763,-35.05745 4.28152,-69.92081 -6.4373,-15.96644 -12.42944,-34.3212 -13.31586,-40.78836 -2.00544,-14.63121 2.43432,-31.71921 11.84366,-45.58465 10.19417,-15.02195 5.57199,-16.48577 -7.10917,-2.25143 -19.53891,21.93202 -22.10454,54.10376 -6.9419,87.04784 5.62696,12.22578 7.87215,21.7328 8.03033,34.00352 0.1968,15.26853 -0.84128,18.49152 -10.02107,31.1127 -26.76489,36.79877 -26.42014,49.33444 2.3766,86.4164 10.1642,13.08857 13.20339,19.53068 14.22375,30.14979 1.15628,12.0336 -0.27478,16.4923 -13.13765,40.93291 -10.46709,19.88839 -14.43528,30.5758 -14.43528,38.87812 0,12.29882 -3.41774,14.36467 -12.62577,7.6316 -7.42965,-5.4327 -4.28329,-17.8351 11.24342,-44.31944 19.75219,-33.69189 17.61119,-53.96849 -8.65522,-81.97003 -10.50249,-11.19627 -16.07834,-27.32043 -13.90206,-40.20173 1.0603,-6.27589 7.592,-19.48518 14.85735,-30.04658 22.82149,-33.17491 23.76281,-42.74492 7.61596,-77.42825 -11.4324,-24.55674 -9.21788,-51.79511 6.21765,-76.47629 7.99276,-12.78029 3.46639,-13.94626 -7.70687,-1.98524 -9.97099,10.67397 -19.67188,35.87994 -19.67188,51.11372 0,6.29179 3.28805,20.96595 7.30677,32.60924 8.33111,24.1374 9.37436,43.65251 2.81991,52.7493 -2.46778,3.425 -8.92108,12.38772 -14.34068,19.91716 -20.98057,29.14841 -19.91926,44.26007 5.46122,77.76115 15.17322,20.02795 20.75557,34.37091 17.42654,44.77463 -0.91439,2.85761 -8.03564,16.01147 -15.825,29.23077 -7.78936,13.21934 -14.16247,26.26546 -14.16247,28.99138 0,5.56482 -5.73621,6.57394 -10.46851,1.84165 -4.48826,-4.48827 -0.65595,-15.24788 12.89882,-36.21479 12.49837,-19.33281 15.15103,-34.08198 7.91056,-43.98391 -3.42548,-4.68464 -3.986,-3.85073 -5.67002,8.4355 -1.22483,8.93614 -6.24993,20.66339 -14.58351,34.03407 -6.99311,11.21998 -12.71475,21.81784 -12.71475,23.55079 0,4.7709 -3.29782,3.86151 -15.11408,-4.16786 -10.16746,-6.90894 -10.50826,-7.6083 -6.08799,-12.49263 3.71031,-4.09986 4.02773,-6.39719 1.529,-11.0661 -3.59927,-6.7253 -5.25247,-7.02913 -16.00426,-2.94131 -6.41982,2.44082 -8.71093,2.00125 -13.2553,-2.54313 -5.97968,-5.97969 -4.45516,-11.69597 3.13761,-11.76473 2.63055,-0.0238 6.69201,-1.25777 9.02546,-2.74213 3.40701,-2.16725 3.58242,-3.76458 0.89058,-8.10981 -3.03458,-4.89852 -2.32625,-5.57502 7.47868,-7.14291 6.51862,-1.04236 17.63806,-6.84906 27.92866,-14.58464 l 17.09791,-12.85274 -7.21482,-14.36436 c -11.11554,-22.13055 -8.80886,-40.55176 8.45713,-67.53866 18.72376,-29.26542 20.36299,-37.05327 12.8546,-61.07122 -8.23628,-26.34631 -8.30245,-55.51215 -0.16326,-71.96291 3.32579,-6.72202 5.34192,-12.92683 4.48029,-13.78846 -3.42572,-3.42572 -17.21206,16.54967 -22.06044,31.96395 -4.85615,15.43894 -4.88822,17.73954 -0.57588,41.31038 7.21825,39.4542 6.52957,44.70034 -9.54905,72.74168 -7.76364,13.53991 -14.85247,28.51052 -15.75295,33.26804 -1.98306,10.47712 -20.60735,24.9148 -32.68325,25.33632 -6.72377,0.23476 -8.14812,1.51878 -8.1588,7.35538 -0.0108,5.81861 -2.96554,8.5106 -16.68249,15.19819 -16.91719,8.24789 -22.91952,8.11272 -22.91039,-0.51588 0.005,-4.85568 18.65206,-18.08284 30.56497,-21.68122 5.03802,-1.52178 6.32944,-3.69223 5.65686,-9.50734 -1.26417,-10.92992 -10.88175,-11.10703 -28.09216,-0.51737 -16.45634,10.12568 -23.40552,10.13394 -24.34909,0.0288 -0.5807,-6.21889 1.97161,-8.29309 21.72263,-17.65346 12.30936,-5.83363 23.74239,-10.6066 25.40675,-10.6066 1.66436,0 3.02611,-3.81838 3.02611,-8.48529 0,-7.19088 -1.09098,-8.48528 -7.15173,-8.48528 -3.93345,0 -14.71588,3.81838 -23.96097,8.48528 -20.22841,10.21128 -27.03013,10.70323 -29.32998,2.12133 -2.57844,-9.62141 -2.23814,-10.60661 3.66373,-10.60661 2.99555,0 15.97435,-5.09117 28.84177,-11.31371 12.86742,-6.22253 24.91745,-11.3137 26.77784,-11.3137 3.88432,0 6.81619,-6.33461 6.81619,-14.72703 0,-5.01087 -1.22191,-5.53509 -9.19239,-3.94353 -5.05581,1.00952 -17.29024,5.62339 -27.18761,10.25304 -9.89738,4.62963 -22.3071,8.41752 -27.57717,8.41752 -9.19876,0 -9.58193,-0.42715 -9.58193,-10.68136 v -10.68133 l 11.27082,1.07483 c 8.4498,0.80582 16.76809,-1.42482 33.23402,-8.91209 12.07975,-5.49281 25.42663,-10.73086 29.65972,-11.6401 8.35315,-1.79419 14.87935,-10.92618 12.40903,-17.36373 -2.47952,-6.46152 -13.18083,-4.70571 -34.97386,5.73832 -24.58781,11.78339 -36.5113,14.20924 -45.88352,9.33508 -6.13178,-3.18892 -6.89707,-5.23428 -6.09823,-16.29832 1.48331,-20.54373 13.26111,-62.65915 24.05819,-86.02803 34.18145,-73.98128 97.19087,-127.46842 175.72794,-149.17113 32.50987,-8.98369 102.68449,-8.95525 135.7645,0.055 104.43102,28.44472 182.03816,116.22438 196.94112,222.75557 3.20059,22.87878 3.07784,24.77452 -1.83684,28.36823 -8.29784,6.06752 -19.89937,4.56695 -38.91435,-5.03327 -21.73425,-10.97313 -32.21519,-14.08633 -40.45819,-12.01747 -5.64967,1.41798 -6.05235,2.51037 -3.56048,9.65853 2.03163,5.82793 5.29558,8.57747 11.78722,9.92946 4.93767,1.02835 18.95575,6.32224 31.15125,11.76419 16.44139,7.33658 25.06755,9.61847 33.36783,8.82693 l 11.19415,-1.06753 -0.84089,9.98698 c -0.75098,8.91885 -1.79351,10.07952 -9.74724,10.85199 -5.45225,0.52951 -16.29904,-2.48706 -27.96837,-7.77817 -10.48416,-4.75374 -23.12035,-8.64317 -28.08048,-8.64317 -8.4116,0 -8.93463,0.57095 -7.77306,8.48529 0.85524,5.82709 2.84161,8.48528 6.34074,8.48528 2.80244,0 14.70457,5.09117 26.44922,11.3137 11.74465,6.22254 24.60503,11.31371 28.57865,11.31371 6.44036,0 7.0257,0.84449 5.39147,7.77818 -3.09224,13.11971 -5.52154,13.34353 -27.65993,2.54838 -11.64757,-5.67962 -23.66531,-10.32656 -26.70606,-10.32656 -5.94386,0 -9.735,6.2702 -7.26813,12.02082 1.53765,3.58446 43.45771,24.74874 49.01981,24.74874 4.23209,0 3.77032,6.3863 -0.92614,12.80909 -3.83444,5.24394 -4.47856,5.1336 -21.61051,-3.70204 -22.13236,-11.41454 -27.18882,-11.56142 -29.53967,-0.85806 -2.52666,11.50378 -8.74134,12.79665 -22.56638,4.69465 -14.21533,-8.33076 -17.11201,-11.69812 -19.65004,-22.84314 -1.06278,-4.6669 -8.32938,-19.05192 -16.148,-31.96671 -16.69112,-27.57029 -18.98605,-37.66427 -12.73463,-56.01123 5.7834,-16.97331 5.89241,-47.59572 0.22656,-63.65432 -4.00932,-11.36373 -16.65859,-27.97286 -21.30369,-27.97286 -1.08376,0 1.23939,7.94679 5.16253,17.65953 8.48116,20.99722 9.09015,43.3883 1.77555,65.28411 -8.14593,24.38445 -6.93281,38.14712 4.93914,56.03427 24.74325,37.27994 27.91001,51.85112 16.54313,76.1199 l -6.90478,14.74199 12.35779,10.96657 c 6.7968,6.03162 18.32841,13.08716 25.62583,15.67899 11.4374,4.06219 13.09452,5.62026 12.01024,11.29224 -0.84081,4.39843 0.0789,6.57983 2.77395,6.57983 2.21749,0 6.50244,1.83579 9.52213,4.07953 5.41754,4.02541 5.41267,4.15829 -0.3675,10.0219 -5.03842,5.11117 -7.01178,5.50367 -14.10723,2.80597 -7.23687,-2.75143 -8.8848,-2.35175 -13.42589,3.25626 -5.05285,6.23999 -5.02861,6.50419 1.01481,11.06274 l 6.19125,4.67007 -8.12075,5.62965 c -4.46643,3.09628 -9.54628,6.44754 -11.28859,7.44725 -1.89949,1.0899 -8.27649,-6.93463 -15.92741,-20.04232 -18.11283,-31.03119 -19.08852,-33.22336 -19.08852,-42.88725 0,-9.22135 -3.91007,-11.64607 -6.76845,-4.19724 -4.65582,12.13288 -1.50642,26.08723 9.85503,43.6656 16.12633,24.9506 18.29455,31.3896 12.09605,35.92207 -7.28442,5.32646 -8.71048,4.58171 -10.67075,-5.57279 -0.97601,-5.05582 -7.46869,-18.65869 -14.4282,-30.22859 -6.95952,-11.56994 -13.43868,-25.22072 -14.39814,-30.33508 -1.91114,-10.18723 -0.76704,-12.50422 22.90025,-46.3767 12.65964,-18.11843 14.14213,-21.81665 14.14213,-35.27917 0,-13.04321 -1.53934,-17.22558 -11.59952,-31.51561 -23.82757,-33.84598 -24.70979,-38.69416 -13.85632,-76.14722 8.23629,-28.42171 8.67232,-43.08551 1.78575,-60.05318 -6.11285,-15.06139 -18.97309,-31.59703 -24.57388,-31.59703 -3.16903,0 -2.50469,2.53092 2.78411,10.6066 15.24321,23.27559 16.43989,53.97389 3.25571,83.51925 -11.47476,25.71455 -10.17218,38.30541 6.63156,64.10213 23.51535,36.10024 24.14906,49.51827 3.63713,77.01259 -25.62869,34.35286 -26.97621,48.99421 -7.39984,80.40316 7.39815,11.86983 13.64272,25.70455 14.50542,32.13642 1.37874,10.27932 0.83042,11.55406 -6.10366,14.19041 -4.19018,1.59309 -7.85381,2.88876 -8.14146,2.87929 -0.28762,-0.008 -0.67574,-5.63714 -0.86245,-12.50584 -0.24098,-8.8629 -3.52142,-18.09579 -11.29959,-31.80255 -22.69383,-39.99122 -23.24353,-46.49793 -6.03861,-71.47758 21.62633,-31.39899 24.65325,-37.67623 24.70221,-51.22734 0.0356,-9.88677 -2.09043,-16.06479 -9.14586,-26.57565 -26.09937,-38.88151 -25.95056,-37.89704 -12.02081,-79.53153 15.08182,-45.07792 12.83164,-67.00099 -9.1974,-89.60804 -5.68449,-5.83363 -11.25705,-10.6066 -12.38347,-10.6066 -1.12645,0 2.25858,7.15191 7.52228,15.89313 10.37974,17.23727 14.34019,34.71368 11.24176,49.60693 -1.08168,5.19929 -7.06819,21.52386 -13.30334,36.27683 -14.45688,34.2063 -13.89038,42.04956 5.09982,70.60816 12.04288,18.11085 13.84877,22.70608 13.84877,35.23957 0,12.87605 -1.44532,16.29121 -13.55441,32.0279 -26.16182,33.99922 -27.30572,44.9749 -8.56988,82.22732 18.32642,36.43843 18.68037,59.71667 0.91109,59.91967 -3.4119,0.039 -4.05441,-3.28686 -3.28137,-16.98542 0.88156,-15.62185 -0.25739,-19.61237 -13.74042,-48.13861 -17.73814,-37.52913 -17.54436,-40.77418 4.18407,-70.06096 17.09549,-23.04223 22.77735,-36.70577 19.98855,-48.06773 -1.02975,-4.19538 -8.90556,-18.1285 -17.5018,-30.96248 -16.23622,-24.24033 -19.11165,-25.9726 -33.82618,-20.37817 -5.63038,2.14069 -11.65471,1.96225 -21.83427,-0.64669 -12.04399,-3.08678 -14.41817,-3.00379 -16.56896,0.57917 -28.72645,47.85496 -30.86055,52.39209 -29.57166,62.86977 0.84529,6.87153 6.24453,17.32551 15.33858,29.69849 7.71876,10.50181 15.47677,21.87432 17.24002,25.27222 6.08288,11.72213 3.63593,27.1731 -8.16949,51.58519 -13.52462,27.96724 -17.09457,42.00964 -14.07905,55.38007 2.07363,9.19423 1.74775,9.8933 -4.61191,9.8933 -4.85649,0 -7.69851,-2.24962 -9.78927,-7.74873 z m 77.59482,-239.37061 c 19.5495,-8.16829 40.17212,-43.04927 38.11846,-64.47325 l -0.90433,-9.43389 -17.39947,-0.64347 c -13.47856,-0.49847 -17.77635,0.33865 -19.07191,3.7148 -2.99904,7.81535 -7.36924,1.12287 -7.36924,-11.28516 0,-16.59826 6.69418,-22.20376 28.39025,-23.77311 20.0071,-1.44718 21.42516,-5.03034 7.50136,-18.95417 -11.46274,-11.46273 -29.1177,-16.63716 -50.28223,-14.73704 -19.58322,1.75816 -32.3141,8.12026 -39.32799,19.65369 -6.77208,11.13578 -5.28518,13.49755 8.49761,13.49755 16.81735,0 24.52416,4.6851 26.36479,16.02762 2.52059,15.53257 1.01785,16.69136 -21.5152,16.59065 l -20.43978,-0.0914 0.28488,15.55635 c 0.57443,31.36727 25.55131,60.6662 52.83898,61.98229 2.77232,0.13379 9.21355,-1.50045 14.31382,-3.6315 z m 243.33236,-49.85013 c 1.39492,-1.36177 -4.41175,-13.28717 -13.33029,-27.37702 -19.19575,-30.32613 -24.49653,-44.64358 -24.49653,-66.16514 0,-9.04641 -1.32987,-17.26993 -2.95528,-18.27448 -5.62959,-3.47929 -27.56348,22.08475 -31.14195,36.2961 -1.83912,7.30387 -3.69019,13.27977 -4.11343,13.27977 -0.42328,0 -6.31792,-2.51764 -13.09927,-5.59474 -14.9044,-6.76305 -45.2324,-7.8396 -50.2581,-1.78401 -2.62186,3.15916 -0.48272,5.97788 10.84994,14.29681 7.7636,5.69902 19.32415,16.90343 25.69006,24.89869 11.13017,13.9789 12.17304,14.57178 27.17177,15.44739 9.74653,0.569 21.09845,3.7038 30.26236,8.35686 24.00964,12.19113 37.67383,14.1826 45.42072,6.61977 z m -467.61604,-7.03469 c 13.15046,-5.41626 29.0011,-9.94351 35.22364,-10.06057 10.14643,-0.19086 12.41908,-1.66374 22.02748,-14.27559 5.89257,-7.73452 17.0295,-18.60016 24.74873,-24.14588 7.71924,-5.54571 14.03497,-11.18745 14.03497,-12.5372 0,-1.34975 -5.13786,-3.83757 -11.41747,-5.52849 -11.11183,-2.99211 -17.29009,-2.0903 -49.79086,7.26773 -5.25269,1.51242 -6.67332,-0.12145 -10.73304,-12.34413 -4.84462,-14.58576 -22.31756,-35.59219 -28.03647,-33.70616 -1.87438,0.61814 -3.91009,9.99523 -4.78998,22.06408 -1.59,21.80879 -7.55662,35.84751 -30.77148,72.40146 -5.11469,8.05357 -8.45542,16.00852 -7.42383,17.67767 3.59242,5.81265 23.1773,2.96937 46.92831,-6.81292 z m 189.37015,-31.39361 c 0.005,-4.87381 -12.47174,-10.22013 -21.45833,-9.19541 -5.76377,0.65723 -8.48696,2.68362 -9.06847,6.74811 -0.7548,5.27564 0.60795,5.79488 14.84648,5.65685 9.25389,-0.0897 15.67869,-1.40477 15.68032,-3.20955 z m 72.73645,-0.18297 c 2.02908,-6.08732 -7.23823,-10.05921 -18.88091,-8.09219 -11.25508,1.90154 -15.83484,5.07971 -13.2737,9.21142 2.02459,3.26611 31.02935,2.25651 32.15461,-1.11923 z m -110.62247,-50.50574 c 47.73261,-13.83237 90.97333,-12.04746 138.12853,5.70171 10.27584,3.86782 19.66308,7.03239 20.86055,7.03239 1.1975,0 3.78933,-6.02737 5.75964,-13.39416 1.97031,-7.36679 7.32546,-19.47744 11.90032,-26.91255 4.57487,-7.43511 8.31796,-14.13566 8.31796,-14.89011 0,-2.80458 -13.8184,-1.23502 -25.54144,2.90112 -6.6608,2.35006 -12.7523,3.63106 -13.53671,2.84666 -1.27064,-1.27064 2.713,-17.31049 7.20921,-29.02748 2.65838,-6.92762 -17.32366,-2.02382 -38.23199,9.38254 -9.77629,5.33336 -18.72948,9.69701 -19.896,9.69701 -1.16656,0 -4.33313,-5.96864 -7.03685,-13.26365 l -4.91586,-13.26365 11.90754,-12.13289 c 6.54916,-6.6731 11.03086,-13.00958 9.95937,-14.08109 -1.07152,-1.0715 -8.72089,-2.50983 -16.99859,-3.19628 l -15.0504,-1.2481 -7.18464,-15.9549 -7.18464,-15.95489 -7.61104,16.14007 -7.61103,16.14007 -16.81971,1.90294 c -9.25084,1.04661 -16.81971,2.91229 -16.81971,4.14595 0,1.23366 5.63131,7.11502 12.51402,13.06969 l 12.51401,10.82667 -4.30108,12.72793 c -2.36559,7.00035 -5.19485,13.68061 -6.28724,14.84501 -1.0924,1.1644 -13.11339,-3.60857 -26.71334,-10.6066 -13.59994,-6.99803 -26.58432,-12.7237 -28.85418,-12.7237 -5.19926,0 -5.14635,7.7657 0.11562,16.97057 2.22321,3.88908 4.08729,9.81257 4.14242,13.16329 l 0.10022,6.09222 -14.17247,-5.38512 c -15.67531,-5.95615 -25.42551,-6.91333 -25.42551,-2.49604 0,1.58898 3.09872,7.63475 6.88603,13.43503 6.04835,9.26303 11.28517,21.15744 16.82824,38.22203 1.50929,4.64642 2.29893,4.70789 9.91102,0.77152 4.54908,-2.35242 19.46106,-7.51986 33.13773,-11.48321 z"
         style="opacity:1;fill:#ffc22d;fill-opacity:1;stroke:#ffffff;stroke-width:40.62244797;stroke-linecap:round;stroke-linejoin:round;stroke-miterlimit:4;stroke-dasharray:none;stroke-dashoffset:0;stroke-opacity:1;paint-order:stroke fill markers" />
      <path
         transform="matrix(0.26458333,0,0,0.26458333,0,-3)"
         inkscape:connector-curvature="0"
         id="path4922"
         d="m -542.8452,559.09794 c 1.13245,-1.60138 3.04758,-5.2213 4.25583,-8.04427 1.54548,-3.61087 3.52156,-6.08402 6.66486,-8.34137 5.02177,-3.60636 5.32323,-3.56908 13.38662,1.65515 4.14642,2.68644 6.40383,5.13302 9.17249,9.94115 l 3.67248,6.37774 h -13.27579 c -7.30169,0 -16.12423,0.29772 -19.60565,0.6616 l -6.32985,0.6616 z"
         style="opacity:1;fill:#ffc22d;fill-opacity:1;stroke:#ffffff;stroke-width:14.36220455;stroke-linecap:round;stroke-linejoin:round;stroke-miterlimit:4;stroke-dasharray:none;stroke-dashoffset:0;stroke-opacity:1;paint-order:stroke fill markers" />
      <path
         transform="matrix(0.26458333,0,0,0.26458333,0,-3)"
         inkscape:connector-curvature="0"
         id="path4924"
         d="m -534.49178,683.76878 c -5.26944,-2.13647 -6.13298,-3.71872 -2.73471,-5.01073 3.06421,-1.16502 6.08796,-0.41905 10.53552,2.59915 1.8877,1.28103 3.93188,2.33603 4.54263,2.34445 0.61075,0.008 0.43545,0.45153 -0.38955,0.98469 -2.2612,1.4613 -6.97997,1.0991 -11.95389,-0.91756 z"
         style="opacity:1;fill:#ffc22d;fill-opacity:1;stroke:#ffffff;stroke-width:14.36220455;stroke-linecap:round;stroke-linejoin:round;stroke-miterlimit:4;stroke-dasharray:none;stroke-dashoffset:0;stroke-opacity:1;paint-order:stroke fill markers" />
      <path
         transform="matrix(0.26458333,0,0,0.26458333,0,-3)"
         inkscape:connector-curvature="0"
         id="path4926"
         d="m -533.19141,711.4009 c -2.95816,-1.66836 -13.34648,-11.60889 -13.34648,-12.77117 0,-0.56051 8.32016,-0.94339 20.5,-0.94339 11.275,0 20.5,0.38664 20.5,0.85921 0,1.82019 -8.42817,10.31858 -12.08194,12.1826 -4.33685,2.21249 -12.23635,2.55378 -15.57158,0.67275 z"
         style="opacity:1;fill:#ffc22d;fill-opacity:1;stroke:#ffffff;stroke-width:14.36220455;stroke-linecap:round;stroke-linejoin:round;stroke-miterlimit:4;stroke-dasharray:none;stroke-dashoffset:0;stroke-opacity:1;paint-order:stroke fill markers" />
      <path
         transform="matrix(0.26458333,0,0,0.26458333,0,-3)"
         inkscape:connector-curvature="0"
         id="path4928"
         d="m -311.03789,850.78747 c -6.05,-3.18328 -12.10264,-6.06473 -13.45031,-6.40322 -2.4222,-0.60838 -2.40823,-0.644 1.21741,-3.10442 2.01724,-1.36894 4.94031,-3.91325 6.49569,-5.65404 l 2.82798,-3.16505 9.45462,4.75796 c 5.20004,2.61687 10.57961,5.07165 11.95461,5.45504 1.74265,0.48591 2.39943,1.27503 2.16801,2.60485 -0.57536,3.30618 -6.30225,11.41025 -8.02225,11.35221 -0.90517,-0.0306 -6.59576,-2.66005 -12.64576,-5.84333 z"
         style="opacity:1;fill:#ffc22d;fill-opacity:1;stroke:#ffffff;stroke-width:14.36220455;stroke-linecap:round;stroke-linejoin:round;stroke-miterlimit:4;stroke-dasharray:none;stroke-dashoffset:0;stroke-opacity:1;paint-order:stroke fill markers" />
      <path
         transform="matrix(0.26458333,0,0,0.26458333,0,-3)"
         inkscape:connector-curvature="0"
         id="path4930"
         d="m -321.61357,883.09929 c -1.33337,-1.42287 -3.68993,-3.33537 -5.23679,-4.25 -1.54686,-0.91462 -3.61941,-3.48581 -4.60566,-5.71376 -0.98625,-2.22794 -3.25581,-5.71665 -5.04348,-7.75269 -3.56444,-4.05967 -3.47917,-6.6965 0.21655,-6.6965 2.41568,0 27.74787,12.61492 27.74133,13.81463 -0.012,2.19841 -8.35222,13.18537 -10.00904,13.18537 -0.35123,0 -1.72954,-1.16417 -3.06291,-2.58705 z"
         style="opacity:1;fill:#ffc22d;fill-opacity:1;stroke:#ffffff;stroke-width:14.36220455;stroke-linecap:round;stroke-linejoin:round;stroke-miterlimit:4;stroke-dasharray:none;stroke-dashoffset:0;stroke-opacity:1;paint-order:stroke fill markers" />
      <path
         transform="matrix(0.26458333,0,0,0.26458333,0,-3)"
         inkscape:connector-curvature="0"
         id="path4932"
         d="m -738.14896,878.87667 -4.61171,-5.66194 5.65116,-2.12583 c 3.10813,-1.1692 9.35366,-3.98809 13.87895,-6.26419 10.01721,-5.03839 12.7262,-5.35389 7.64214,-0.89003 -2.03481,1.78658 -4.74479,5.61158 -6.02219,8.5 -1.27739,2.88841 -2.77691,5.25166 -3.33226,5.25166 -0.55535,0 -2.71627,1.54176 -4.80205,3.42613 l -3.79232,3.42614 z"
         style="opacity:1;fill:#ffc22d;fill-opacity:1;stroke:#ffffff;stroke-width:14.36220455;stroke-linecap:round;stroke-linejoin:round;stroke-miterlimit:4;stroke-dasharray:none;stroke-dashoffset:0;stroke-opacity:1;paint-order:stroke fill markers" />
    </g>
    <path
       style="opacity:1;fill:#ffc22d;fill-opacity:1;stroke:#ffc22d;stroke-width:4.80000019;stroke-linecap:round;stroke-linejoin:miter;stroke-miterlimit:4;stroke-dasharray:none;stroke-dashoffset:0;stroke-opacity:1;paint-order:stroke fill markers"
       d="M 150.00001,32.47314 A 114.52679,114.52679 0 0 0 35.473143,147 114.52679,114.52679 0 0 0 150.00001,261.52686 114.52679,114.52679 0 0 0 264.52686,147 114.52679,114.52679 0 0 0 150.00001,32.47314 Z m 0,30.833259 A 83.693213,83.693213 0 0 1 233.69309,147 83.693213,83.693213 0 0 1 150.00001,230.69308 83.693213,83.693213 0 0 1 66.306403,147 83.693213,83.693213 0 0 1 150.00001,63.306399 Z"
       id="path4487"
       inkscape:connector-curvature="0" />
    <text
       xml:space="preserve"
       style="font-style:normal;font-variant:normal;font-weight:normal;font-stretch:normal;font-size:16.93333244px;line-height:17.19791603px;font-family:AMEMUCHIGOTHICMONO-02;-inkscape-font-specification:'AMEMUCHIGOTHICMONO-02, Normal';font-variant-ligatures:normal;font-variant-caps:normal;font-variant-numeric:normal;font-feature-settings:normal;text-align:start;letter-spacing:0px;word-spacing:0px;writing-mode:lr-tb;text-anchor:start;fill:#ffffff;fill-opacity:1;stroke:none;stroke-width:0.26458332"
       id="text4511"
       transform="matrix(0.56841093,0.9461616,-0.9461616,0.56841093,203.61496,-78.439271)"><textPath
         xlink:href="#path4536"
         id="textPath4539"
         style="fill:#ffffff;fill-opacity:1"><tspan
   style="font-style:normal;font-variant:normal;font-weight:normal;font-stretch:normal;font-size:28.22222137px;font-family:AMEMUCHIGOTHICMONO-02;-inkscape-font-specification:'AMEMUCHIGOTHICMONO-02, Normal';font-variant-ligatures:normal;font-variant-caps:normal;font-variant-numeric:normal;font-feature-settings:normal;text-align:start;writing-mode:lr-tb;text-anchor:start;fill:#ffffff;fill-opacity:1;stroke-width:0.26458332"
   id="tspan4509"
   dx="150.41907">LONDON MANAGEMENT SCHOOL</tspan></textPath></text>
    <path
       style="opacity:1;fill:none;fill-opacity:1;stroke:#ffc22d;stroke-width:3.253;stroke-linecap:round;stroke-linejoin:miter;stroke-miterlimit:4;stroke-dasharray:none;stroke-dashoffset:0;stroke-opacity:1;paint-order:stroke fill markers"
       d="M 227.85389,146.99986 A 77.853952,77.853952 0 0 1 149.99993,224.85381 77.853952,77.853952 0 0 1 72.146105,146.99986 77.853952,77.853952 0 0 1 149.99993,69.146192 77.853952,77.853952 0 0 1 227.85389,146.99986 Z"
       id="path4536"
       inkscape:connector-curvature="0" />
    <path
       style="opacity:1;fill:#ff9191;fill-opacity:1;stroke:#ffffff;stroke-width:3.8;stroke-linecap:round;stroke-linejoin:round;stroke-miterlimit:4;stroke-dasharray:none;stroke-dashoffset:0;stroke-opacity:1;paint-order:stroke fill markers"
       d="m 136.45751,274.96984 c -0.0226,-0.45627 -1.50638,-5.79358 -1.96875,-7.08157 -0.156,-0.43473 -0.57572,-2.04061 -0.93267,-3.5686 l -0.64892,-2.77819 -4.0395,-2.84188 c -2.22173,-1.56302 -4.1229,-2.87353 -4.22483,-2.91224 -0.20733,-0.0788 -4.58784,4.72693 -5.5968,6.13999 -0.35685,0.49979 -0.89512,1.38847 -1.19614,1.97486 -0.30101,0.58642 -0.76587,1.33043 -1.03298,1.6534 -0.26714,0.32298 -0.38545,0.74269 -0.26294,0.93273 0.12252,0.19002 -0.071,0.40695 -0.43002,0.48206 -0.35901,0.0751 -0.58012,0.24946 -0.49135,0.38747 0.0888,0.13797 -0.23001,0.53649 -0.70837,0.8856 -0.73965,0.5398 -0.90952,0.50156 -1.13552,-0.25567 -0.14614,-0.48973 -0.86852,-2.34505 -1.60524,-4.12294 -0.73673,-1.77789 -1.4517,-3.7606 -1.58881,-4.40607 -0.64545,-3.03846 0.65037,-7.0097 3.00965,-9.22314 1.1522,-1.08099 1.1522,-1.08103 0.008,-2.38814 -0.62906,-0.71893 -1.65501,-1.62284 -2.27989,-2.00868 -1.46846,-0.90673 -1.5391,-1.05068 -0.45455,-0.92622 0.80194,0.092 0.81096,0.0297 0.0888,-0.61413 -0.44201,-0.3941 -1.4742,-1.39545 -2.29374,-2.22523 -0.81956,-0.82977 -1.73409,-1.68473 -2.03233,-1.8999 -0.29822,-0.21517 -0.66183,-0.53636 -0.80802,-0.71374 -0.73433,-0.89109 -2.42965,-1.94169 -7.338041,-4.54743 -4.184237,-2.2213 -5.484856,-2.73057 -5.882711,-2.30352 -0.547376,0.58759 -1.029614,0.24545 -0.682101,-0.48345 0.504952,-1.06 -0.916191,-2.09434 -3.387741,-2.46569 -1.39579,-0.20972 -2.364171,-0.49326 -2.151959,-0.63006 0.212207,-0.13683 1.254904,-0.11919 2.317068,0.0389 l 1.931215,0.28769 -6.105204,-9.46962 c -5.877772,-9.11686 -6.156996,-9.48924 -7.497097,-9.99592 -0.880693,-0.33301 -1.536837,-0.8853 -1.786587,-1.5038 -0.345296,-0.85514 -0.56224,-0.90916 -1.733209,-0.43165 -1.078267,0.4397 -1.456514,0.87264 -1.945431,2.22645 -0.599111,1.65908 -0.950467,1.80186 -0.962809,0.39125 -0.01562,-1.78422 -2.52572,-0.34764 -4.3053,2.46404 -0.910958,1.43928 -1.671184,2.18942 -2.71684,2.68082 -1.204827,0.5662 -1.438141,0.85152 -1.370978,1.67638 0.110983,1.36282 -0.763028,1.80583 -3.495991,1.772 -2.542231,-0.0315 -3.540072,-0.84645 -2.526127,-2.06332 0.344557,-0.41351 1.086256,-1.90864 1.648204,-3.32251 0.561951,-1.41386 1.534522,-3.13781 2.161258,-3.83099 1.622512,-1.79446 0.626867,-1.74627 -2.916465,0.14117 -1.673179,0.89127 -3.25524,1.51896 -3.515704,1.39489 -0.260455,-0.12407 -0.711235,-0.66421 -1.001727,-1.20029 -0.582004,-1.07399 -4.954939,-4.1909 -6.545938,-4.66577 -1.091344,-0.32572 -2.000898,-1.47307 -2.009214,-2.53453 -0.004,-0.51056 0.219383,-0.68326 0.962088,-0.74375 0.532006,-0.0434 1.96868,-0.72437 3.19258,-1.51343 2.017144,-1.30048 2.255964,-1.59303 2.553236,-3.12774 0.217026,-1.12042 0.670728,-1.91404 1.341455,-2.34647 0.55743,-0.35938 1.210252,-1.22475 1.450701,-1.92303 0.24045,-0.69827 0.804456,-1.50639 1.253328,-1.79579 0.551608,-0.35563 0.773436,-0.97266 0.684353,-1.90362 -0.07248,-0.75758 0.335611,-2.2879 0.906885,-3.40072 0.571276,-1.11283 1.044965,-2.2427 1.05263,-2.51084 0.0085,-0.29641 0.479529,-0.48407 1.201588,-0.47873 0.840126,0.006 1.300543,-0.20392 1.573483,-0.7182 0.490342,-0.92389 2.640093,-1.74161 3.303164,-1.25637 0.297446,0.21765 0.994581,0.053 1.699276,-0.40125 1.421192,-0.91626 3.707816,-1.38589 4.906133,-1.00761 0.637514,0.20126 1.129386,0.0176 1.895212,-0.70746 1.232351,-1.16684 2.210238,-1.14272 3.446535,0.0851 0.487453,0.48411 1.263543,0.84948 1.724629,0.81192 0.461079,-0.0377 1.240887,0.34684 1.732896,0.85417 0.840475,0.86669 1.668825,0.78865 2.79852,-0.26361 0.144871,-0.13491 0.638181,-0.3472 1.096301,-0.47167 0.818328,-0.22233 0.828745,-0.20366 0.595268,1.06821 -0.232759,1.26805 -0.220703,1.28991 0.590519,1.06946 0.455459,-0.12377 1.411486,-0.82481 2.124522,-1.55789 0.713056,-0.73309 1.420936,-1.41857 1.573077,-1.52332 0.152466,-0.10421 1.188771,1.3214 2.303596,3.16917 l 2.026953,3.35959 -0.89255,1.31755 c -0.490903,0.72466 -1.493343,2.18459 -2.227645,3.24428 -2.128752,3.07205 -1.96048,3.33591 1.780608,2.7923 2.343604,-0.34054 3.105903,-0.30582 2.675014,0.12118 -0.906307,0.8986 -1.300319,2.89961 -1.051173,5.33864 0.269059,2.63416 -0.25084,3.70316 -2.232599,4.59048 -0.819789,0.36705 -2.156284,0.96511 -2.969989,1.32901 -1.311279,0.58642 -1.449211,0.77362 -1.213268,1.64649 0.221451,0.81936 0.172648,0.89992 -0.290425,0.47943 -0.692498,-0.62876 -1.590224,-0.0892 -1.925229,1.1571 -0.196069,0.72946 -0.468578,0.96122 -1.200313,1.0208 -1.537402,0.1252 -1.682333,0.43991 -1.025335,2.22676 0.40518,1.10199 0.417623,1.40559 0.03546,0.86612 -0.438391,-0.61889 -0.624225,-0.66487 -0.728874,-0.18038 -0.104374,0.48313 1.546749,3.05414 6.423935,10.00293 7.396576,10.5384 6.263186,9.46744 14.408414,13.61485 3.40777,1.73516 4.55587,2.12665 5.14335,1.75375 0.52078,-0.3298 0.67441,-0.30267 0.49367,0.0887 -0.20668,0.44757 0.58491,1.38196 3.7166,4.38705 2.1886,2.10009 4.83138,4.49129 5.87291,5.31375 1.04152,0.82249 2.37391,2.02634 2.96087,2.67523 0.60813,0.67231 1.2239,1.02793 1.43151,0.8267 1.06801,-1.03517 4.09441,-1.28856 7.90372,-0.66176 1.71824,0.28273 1.99892,-0.10515 1.75578,-2.42609 -0.18379,-1.75349 -6.83233,-19.10734 -8.03533,-20.97327 -0.47636,-0.73889 -1.04953,-1.04783 -1.95631,-1.05453 -1.20751,-0.009 -1.29885,0.0512 -1.56091,1.02608 -0.26557,0.98806 -0.29932,1.00303 -0.73575,0.32608 -0.29272,-0.45403 -0.91916,-0.62546 -1.73983,-0.47618 -0.70534,0.1283 -1.88417,0.0835 -2.61963,-0.0996 -0.75602,-0.18821 -1.73532,-0.0762 -2.25321,0.25767 -0.5038,0.32481 -1.23229,0.52224 -1.61887,0.43876 -0.55052,-0.11891 -0.79025,0.0338 -1.106,0.70473 -0.41968,0.89168 -2.51297,1.95016 -3.20489,1.62055 -0.21466,-0.10227 -1.07416,-0.0637 -1.90996,0.0857 -0.83583,0.14936 -1.62345,0.11061 -1.75029,-0.0861 -0.37222,-0.57733 0.96244,-2.55274 2.75324,-4.07506 l 1.66125,-1.41219 -1.03037,-1.3677 c -0.9781,-1.29833 -1.09601,-1.33351 -2.32438,-0.69371 -0.71171,0.3707 -1.86269,0.57154 -2.55773,0.44633 -1.046337,-0.18851 -1.414614,-0.5181 -2.141201,-1.91636 -0.482665,-0.92876 -1.257141,-2.30644 -1.721119,-3.06145 l -0.84362,-1.37274 1.40279,-0.61266 c 0.771536,-0.33697 2.214213,-0.60298 3.20595,-0.5911 0.99175,0.0118 2.2548,-0.10118 2.80679,-0.25118 0.86439,-0.23488 0.90978,-0.34002 0.32718,-0.75788 -2.27151,-1.62912 -3.32065,-4.45993 -1.97457,-5.32777 0.28337,-0.1827 0.41403,-0.48917 0.29032,-0.68105 -0.12369,-0.19187 0.19444,-0.61922 0.70699,-0.94967 0.51256,-0.33045 1.05429,-1.05613 1.20386,-1.61261 0.25762,-0.95844 0.34987,-0.99187 1.74918,-0.63386 0.81248,0.20788 1.63291,0.27759 1.82318,0.15491 0.19027,-0.12268 1.09126,-0.34862 2.00219,-0.50215 0.91091,-0.15356 2.40061,-0.67569 3.31042,-1.16045 3.40884,-1.81626 4.62504,-2.19463 5.24019,-1.63028 0.32889,0.30175 0.70439,0.49533 0.83444,0.4302 1.80352,-0.9032 2.51576,-1.06084 3.43238,-0.75962 l 1.08577,0.35678 0.33091,-1.97924 c 0.45202,-2.70371 0.99436,-2.93999 2.1835,-0.95123 0.52751,0.88224 0.99019,1.58404 1.02818,1.55955 0.0379,-0.0245 0.45447,-0.53837 0.92556,-1.14194 2.06937,-2.65149 3.95844,-1.75241 5.13095,2.44195 0.60048,2.14817 0.57101,2.59869 -0.23639,3.61081 -0.5074,0.63601 -0.79716,1.35087 -0.64391,1.58858 0.20065,0.31121 1.28347,-0.19073 3.86892,-1.79346 1.97468,-1.22408 3.77629,-2.18546 4.00361,-2.13634 0.60613,0.13093 1.86332,4.57363 1.6545,5.84683 -0.32404,1.97592 -1.89565,4.08676 -5.1757,6.95153 -1.77833,1.55319 -3.38943,3.02635 -3.58021,3.27372 -0.19081,0.24737 -0.70318,0.48678 -1.13866,0.53197 -1.00292,0.10369 -2.78012,0.43223 -3.72947,0.6885 -0.92953,0.25096 -0.44259,1.91896 0.75416,2.58326 0.45898,0.25479 1.05616,0.83502 1.32704,1.28939 0.45574,0.76429 0.40982,0.77167 -0.6127,0.098 -1.02,-0.67206 -1.24877,-0.63639 -2.9659,0.46236 -1.57151,1.00603 -1.87226,1.38488 -1.93545,2.44168 -0.0693,1.1594 5.3412,16.75283 5.86313,16.89785 0.12754,0.0354 0.29794,-0.2411 0.37862,-0.61451 0.26877,-1.2442 0.82957,-1.13675 0.62991,0.12068 -0.10813,0.68088 -0.0824,2.70412 0.0572,4.49611 0.20556,2.63935 0.41358,3.36072 1.09491,3.79805 1.40205,0.89991 3.22136,3.21624 3.85019,4.90204 l 0.59401,1.59251 -2.41666,-0.50765 -2.41668,-0.50765 0.23053,1.08499 c 0.12674,0.59675 0.36139,1.28804 0.5214,1.53623 0.15995,0.24818 3.24789,2.47863 6.86195,4.95659 6.56602,4.50193 6.57029,4.50572 5.5838,4.98919 -0.88747,0.43496 -1.48146,0.13924 -5.87866,-2.92666 -2.69028,-1.87576 -4.92905,-3.21044 -4.97503,-2.96593 -0.046,0.24452 0.27061,1.88304 0.70351,3.64115 1.38281,5.61394 1.70368,7.50147 1.35172,7.93995 -0.18893,0.2353 -0.35295,0.23826 -0.36433,0.007 z m -5.11888,-18.47706 c -0.49578,-0.78009 -4.22793,-2.11678 -4.3488,-1.55718 -0.0356,0.1647 1.04148,1.05018 2.39345,1.96775 2.42507,1.64583 3.16276,1.49093 1.95536,-0.41055 z"
       id="path4839"
       inkscape:connector-curvature="0" />
    <path
       style="opacity:1;fill:#ff9191;fill-opacity:1;stroke:#fff4f4;stroke-width:3.8;stroke-linecap:round;stroke-linejoin:round;stroke-miterlimit:4;stroke-dasharray:none;stroke-dashoffset:0;stroke-opacity:1;paint-order:stroke fill markers"
       d="m 86.405939,251.30081 c -0.009,-0.16721 -0.0578,-0.30402 -0.10927,-0.30402 -0.0514,0 -0.0935,-0.0988 -0.0935,-0.21948 0,-0.25679 -0.25717,-0.80951 -0.37664,-0.80951 -0.0453,0 -0.15199,0.14685 -0.23716,0.32633 l -0.15485,0.32634 -0.31509,-0.34972 c -0.1733,-0.19234 -0.31607,-0.38129 -0.31726,-0.41988 -0.003,-0.11084 -0.54756,-0.0816 -0.74205,0.0398 -0.14109,0.0881 -0.20591,0.0801 -0.32614,-0.0401 -0.0825,-0.0825 -0.15006,-0.2162 -0.15006,-0.29705 0,-0.0808 -0.0321,-0.147 -0.0714,-0.147 -0.0393,0 -0.11291,-0.0947 -0.1637,-0.21047 -0.10131,-0.23092 -0.47598,-0.33198 -0.63633,-0.17163 -0.17228,0.17228 -0.29391,0.114 -0.42278,-0.20255 -0.39971,-0.98184 -0.5001,-1.06041 -1.02091,-0.79906 -0.11568,0.0581 -0.22259,0.088 -0.23757,0.0664 -0.11953,-0.17162 -0.53431,-1.09564 -0.53431,-1.19029 0,-0.0657 -0.0755,-0.20059 -0.1679,-0.29971 -0.13169,-0.14136 -0.22751,-0.16404 -0.44433,-0.10516 l -0.27644,0.0751 -0.0942,-0.6159 c -0.0774,-0.50624 -0.12741,-0.62041 -0.28063,-0.64124 -0.12618,-0.0171 -0.26185,0.0862 -0.41989,0.32 l -0.23348,0.34533 -0.0655,-0.31999 c -0.20171,-0.98603 -0.32328,-1.1481 -0.63063,-0.84075 l -0.19335,0.19335 v -0.22834 c 0,-0.12559 -0.0421,-0.25436 -0.0935,-0.28616 -0.0515,-0.0318 -0.0935,-0.27843 -0.0935,-0.54808 0,-0.26964 -0.0378,-0.53025 -0.084,-0.57913 -0.0462,-0.0489 -0.10542,-0.25724 -0.13166,-0.46304 -0.0262,-0.2058 -0.11948,-0.79513 -0.20721,-1.30962 -0.25371,-1.48786 -0.2614,-1.70125 -0.0922,-2.55774 0.20707,-1.04835 0.48745,-1.88562 0.63144,-1.88562 0.0389,0 0.0707,-0.0476 0.0707,-0.10585 0,-0.13781 0.78532,-0.92313 0.92313,-0.92313 0.0582,0 0.10586,-0.0421 0.10586,-0.0935 0,-0.0514 0.0842,-0.0935 0.18708,-0.0935 0.1029,0 0.18709,-0.0329 0.18709,-0.0731 0,-0.0781 0.52846,-0.23631 1.21483,-0.36375 0.28443,-0.0528 0.42978,-0.13032 0.45099,-0.24045 0.0331,-0.17196 -0.17059,-0.27948 -1.1981,-0.6323 -0.39603,-0.136 -0.73908,-0.27395 -0.95756,-0.3851 -0.0893,-0.0455 -0.24719,-0.0826 -0.35079,-0.0826 -0.10359,0 -0.18836,-0.0421 -0.18836,-0.0935 0,-0.0514 -0.0526,-0.0942 -0.11693,-0.0949 -0.0643,-7.9e-4 -0.49155,-0.19018 -0.94942,-0.42094 -0.45788,-0.23077 -0.89988,-0.41953 -0.98222,-0.41947 -0.0824,6e-5 -0.276,0.10888 -0.43035,0.24181 -0.15435,0.13294 -0.42391,0.35389 -0.59902,0.491 -0.17511,0.13711 -0.41524,0.34401 -0.53363,0.45977 -0.11838,0.11576 -0.24872,0.21088 -0.28965,0.21138 -0.0409,5.3e-4 -0.26384,0.14727 -0.49536,0.32616 -0.65687,0.50754 -0.64399,0.49934 -1.59025,1.01216 -0.28297,0.15336 -0.6949,0.37781 -0.91538,0.49879 -0.22049,0.12097 -0.46253,0.21996 -0.53788,0.21996 -0.0753,0 -0.137,0.0421 -0.137,0.0935 0,0.0514 -0.0848,0.0935 -0.18836,0.0935 -0.10359,0 -0.26145,0.0372 -0.35079,0.0826 -0.24877,0.12655 -0.58414,0.26098 -1.09787,0.44006 -0.25725,0.0897 -0.50772,0.19818 -0.55659,0.24112 -0.0489,0.0429 -0.1832,0.0781 -0.2985,0.0781 -0.1153,0 -0.23565,0.0421 -0.26745,0.0935 -0.0318,0.0514 -0.17912,0.0935 -0.3274,0.0935 -0.14828,0 -0.29273,0.0374 -0.32102,0.0832 -0.0283,0.0458 -0.18862,0.10658 -0.35631,0.13513 -0.16769,0.0285 -0.50484,0.0964 -0.74922,0.15065 -2.64383,0.58749 -2.81853,0.60499 -6.01022,0.60207 -2.46782,-0.002 -3.14125,-0.0316 -3.83532,-0.16737 -1.17027,-0.22883 -1.72686,-0.33494 -2.08223,-0.39697 -0.16769,-0.0293 -0.32803,-0.0907 -0.35631,-0.13642 -0.11173,-0.18078 -0.38633,-0.0609 -0.7695,0.33587 -0.47789,0.49487 -0.95468,0.84938 -0.95468,0.70983 0,-0.0549 -0.10524,-0.0999 -0.23387,-0.0999 -0.12862,0 -0.23386,-0.0421 -0.23386,-0.0935 0,-0.0515 -0.10523,-0.0935 -0.23386,-0.0935 -0.12862,0 -0.23386,0.0421 -0.23386,0.0935 0,0.0514 -0.0596,0.0935 -0.13252,0.0935 -0.0729,0 -0.14655,0.0331 -0.1637,0.0735 -0.0171,0.0404 -0.16799,0.16959 -0.3352,0.287 -0.2573,0.18066 -0.30402,0.1899 -0.30402,0.0601 0,-0.18901 -0.22088,-0.42064 -0.4011,-0.42064 -0.0736,0 -0.33301,0.17532 -0.57644,0.38961 l -0.44262,0.3896 0.0314,-0.36502 c 0.0251,-0.29156 -0.002,-0.37152 -0.13631,-0.39733 -0.0923,-0.0178 -0.21836,0.009 -0.2802,0.059 -0.26281,0.2134 -0.8329,0.48479 -0.9136,0.43491 -0.0481,-0.0298 -0.0875,-0.13879 -0.0875,-0.24233 0,-0.17702 -0.19835,-0.45552 -0.32442,-0.45552 -0.0314,0 -0.27648,0.14806 -0.54455,0.32903 l -0.48742,0.32902 -0.0468,-0.49273 c -0.0299,-0.31446 -0.0891,-0.48934 -0.16371,-0.48337 -0.0643,0.005 -0.17352,0.0157 -0.24269,0.0234 -0.0692,0.008 -0.2447,0.11623 -0.39007,0.24114 -0.14536,0.12491 -0.3457,0.24839 -0.44519,0.27441 -0.1645,0.043 -0.17541,0.0108 -0.12042,-0.35588 0.049,-0.32657 0.0308,-0.41457 -0.0957,-0.46311 -0.16004,-0.0614 -0.22213,-0.0253 -0.82684,0.48118 -0.0768,0.0643 -0.18349,0.11693 -0.23711,0.11693 -0.0536,0 -0.0975,0.0421 -0.0975,0.0935 0,0.0514 -0.12381,0.0935 -0.27512,0.0935 -0.15131,0 -0.30113,0.0421 -0.33292,0.0935 -0.0318,0.0515 -0.13525,0.0935 -0.22988,0.0935 -0.18869,0 -1.17907,0.49615 -1.41451,0.70861 -0.0812,0.0733 -0.19699,0.13328 -0.25725,0.13328 -0.0603,0 -0.10956,0.033 -0.10956,0.0734 0,0.0404 -0.11577,0.14189 -0.25725,0.22563 -0.14149,0.0837 -0.36157,0.24289 -0.48908,0.35367 -0.2946,0.25599 -0.35818,0.0903 -0.10292,-0.26818 0.10694,-0.15018 0.19443,-0.31917 0.19443,-0.37555 0,-0.0564 0.0421,-0.10249 0.0935,-0.10249 0.0515,0 0.094,-0.0526 0.0945,-0.11693 7.9e-4,-0.0972 0.20748,-0.39717 0.72535,-1.05236 0.0407,-0.0514 0.17591,-0.24088 0.30055,-0.42095 0.2859,-0.41306 1.61482,-1.89018 2.09804,-2.33201 0.20091,-0.1837 0.47881,-0.43924 0.61756,-0.56787 0.13875,-0.12862 0.39194,-0.33909 0.56265,-0.46772 0.17071,-0.12862 0.47548,-0.37057 0.67728,-0.53767 0.20179,-0.1671 0.48931,-0.37613 0.63893,-0.46451 0.14961,-0.0884 0.27202,-0.19371 0.27202,-0.23406 0,-0.0404 0.0425,-0.0734 0.0944,-0.0734 0.0519,0 0.44129,-0.22299 0.86527,-0.49552 0.81753,-0.52551 2.35792,-1.30034 3.67077,-1.84645 0.10289,-0.0428 0.35546,-0.13129 0.56126,-0.19664 0.2058,-0.0653 0.41417,-0.15233 0.46304,-0.19328 0.0489,-0.0409 0.18321,-0.0744 0.2985,-0.0744 0.1153,0 0.23565,-0.0421 0.26745,-0.0935 0.0318,-0.0514 0.15004,-0.0938 0.26277,-0.0941 0.11272,-2.6e-4 0.32552,-0.0635 0.47289,-0.14031 0.14737,-0.0769 0.36588,-0.13974 0.48559,-0.13974 0.1197,0 0.24366,-0.0421 0.27546,-0.0936 0.0318,-0.0514 0.22122,-0.0935 0.42095,-0.0935 0.19972,0 0.38915,-0.0421 0.42095,-0.0935 0.0318,-0.0515 0.24227,-0.0935 0.46772,-0.0935 0.22545,0 0.43592,-0.0421 0.46772,-0.0935 0.0318,-0.0515 0.27334,-0.0936 0.53676,-0.0936 0.26342,0 0.60822,-0.0398 0.76622,-0.0884 0.158,-0.0486 0.53984,-0.15928 0.84854,-0.24589 0.3087,-0.0866 0.60126,-0.19415 0.65013,-0.23899 0.0489,-0.0448 0.2253,-0.0815 0.39205,-0.0815 0.16674,0 0.32919,-0.0421 0.36099,-0.0935 0.0318,-0.0515 0.22122,-0.0936 0.42094,-0.0936 0.19973,0 0.38916,-0.0421 0.42095,-0.0935 0.0318,-0.0514 0.2153,-0.0935 0.40777,-0.0935 0.19247,0 0.38993,-0.038 0.43881,-0.0845 0.0489,-0.0465 0.27829,-0.10683 0.50982,-0.13416 0.23152,-0.0273 0.65247,-0.093 0.93544,-0.14604 3.11336,-0.58304 6.76157,-0.68495 8.65285,-0.24169 0.36015,0.0844 0.79201,0.17583 0.9597,0.20316 0.16769,0.0273 0.32803,0.0871 0.35631,0.13291 0.0283,0.0458 0.15169,0.0832 0.27425,0.0832 0.12255,0 0.24883,0.0421 0.28063,0.0935 0.0318,0.0515 0.16056,0.0936 0.28615,0.0936 0.12559,0 0.22834,0.0421 0.22834,0.0935 0,0.0515 0.0617,0.0935 0.137,0.0935 0.15837,0 0.84464,0.36861 1.45326,0.78058 0.70102,0.47451 2.05797,1.98254 2.05797,2.2871 0,0.15587 0.48834,0.58055 0.66757,0.58055 0.0959,0 0.17433,0.0421 0.17433,0.0935 0,0.0515 0.0601,0.0935 0.13348,0.0935 0.0734,0 0.45246,0.14734 0.8423,0.32741 0.38985,0.18007 0.77177,0.3274 0.84873,0.3274 0.077,0 0.13992,0.0421 0.13992,0.0935 0,0.0515 0.10524,0.0935 0.23386,0.0935 0.12862,0 0.23386,0.0421 0.23386,0.0936 0,0.0514 0.0637,0.0935 0.14159,0.0935 0.0779,0 0.21468,0.037 0.30402,0.0822 0.17642,0.0893 1.23486,0.54221 1.61237,0.69 0.12862,0.0503 0.30695,0.12873 0.39629,0.17418 0.0893,0.0455 0.2472,0.0826 0.35079,0.0826 0.1036,0 0.18836,0.0421 0.18836,0.0935 0,0.0515 0.10524,0.0935 0.23386,0.0935 0.12863,0 0.23386,0.0421 0.23386,0.0936 0,0.0514 0.10276,0.0935 0.22834,0.0935 0.12559,0 0.25195,0.0382 0.28081,0.0849 0.0289,0.0467 0.29443,0.15852 0.59017,0.24853 0.29574,0.09 0.5777,0.19913 0.62658,0.24251 0.0489,0.0434 0.20424,0.0789 0.34527,0.0789 0.14102,0 0.28242,0.0421 0.31421,0.0935 0.0318,0.0514 0.22123,0.0935 0.42095,0.0935 0.19973,0 0.38916,0.0421 0.42095,0.0935 0.0318,0.0515 0.15808,0.0935 0.28064,0.0935 0.12255,0 0.24883,0.0421 0.28063,0.0935 0.0318,0.0514 0.13952,0.0935 0.23938,0.0935 0.0999,0 0.18173,0.0316 0.18192,0.0702 1.9e-4,0.0386 0.20014,0.14682 0.44433,0.24053 0.2442,0.0937 0.51708,0.20946 0.60642,0.25724 0.0893,0.0478 0.22672,0.0869 0.30529,0.0869 0.0786,0 0.22648,0.0421 0.32868,0.0935 0.1022,0.0514 0.26943,0.13565 0.37163,0.18709 0.10221,0.0515 0.25011,0.0935 0.32868,0.0935 0.0786,0 0.21595,0.0383 0.30529,0.0852 0.22304,0.11702 1.23287,0.57322 1.51882,0.68615 0.12863,0.0508 0.30696,0.12955 0.3963,0.17499 0.0893,0.0454 0.22614,0.0826 0.30402,0.0826 0.0779,0 0.14158,0.0421 0.14158,0.0935 0,0.0515 0.0842,0.0935 0.18709,0.0935 0.1029,0 0.18709,0.0421 0.18709,0.0935 0,0.0514 0.064,0.0935 0.14217,0.0935 0.0782,0 0.2992,0.0978 0.49111,0.21731 0.19191,0.11952 0.43312,0.25232 0.53602,0.29511 0.16784,0.0698 0.17024,0.0818 0.0234,0.11696 -0.26709,0.0639 -0.18998,0.28599 0.27005,0.7778 0.44108,0.47155 0.45786,0.60819 0.034,0.27662 -0.12862,-0.10061 -0.28648,-0.18386 -0.35079,-0.185 -0.0643,-0.001 -0.11693,-0.0442 -0.11693,-0.0956 0,-0.0515 -0.0631,-0.0935 -0.14032,-0.0935 -0.0772,0 -0.14032,-0.0421 -0.14032,-0.0935 0,-0.0515 -0.0807,-0.0935 -0.17929,-0.0935 -0.0986,0 -0.19332,-0.0357 -0.21047,-0.0794 -0.0443,-0.11281 -0.89934,-0.57545 -1.06349,-0.57545 -0.0753,0 -0.137,-0.0421 -0.137,-0.0935 0,-0.0515 -0.0842,-0.0935 -0.18709,-0.0935 -0.1029,0 -0.18709,-0.0421 -0.18709,-0.0935 0,-0.0514 -0.0817,-0.0935 -0.18156,-0.0935 -0.0999,0 -0.20759,-0.0421 -0.23939,-0.0935 -0.0318,-0.0515 -0.13601,-0.0935 -0.23158,-0.0935 -0.0956,0 -0.18781,-0.0316 -0.20496,-0.0702 -0.0524,-0.11789 -0.73987,-0.40422 -0.83273,-0.34683 -0.11717,0.0724 -0.11165,0.51053 0.006,0.51053 0.0514,0 0.0935,0.0842 0.0935,0.18709 0,0.10289 0.0421,0.18708 0.0935,0.18708 0.0515,0 0.0935,0.0848 0.0935,0.18836 0,0.1036 0.0369,0.26146 0.0821,0.35079 0.29665,0.58719 0.44037,1.87608 0.34152,3.06273 -0.0492,0.59027 -0.10013,0.79471 -0.19812,0.79471 -0.0726,0 -0.13192,0.0421 -0.13192,0.0935 0,0.0515 -0.0439,0.0935 -0.0976,0.0935 -0.23734,0 -0.54168,0.43548 -0.58837,0.84189 -0.0976,0.85011 -0.19874,1.16599 -0.38457,1.20178 -0.20769,0.04 -0.42614,0.23636 -0.42614,0.38307 0,0.0558 -0.0421,0.18511 -0.0935,0.28731 -0.0514,0.1022 -0.13564,0.26944 -0.18709,0.37164 -0.0514,0.1022 -0.0935,0.25254 -0.0935,0.33409 0,0.26205 -0.28539,0.45721 -0.62573,0.42788 -0.26165,-0.0225 -0.3678,0.0283 -0.59332,0.28412 -0.15107,0.17136 -0.27534,0.36419 -0.27616,0.4285 -8e-4,0.0643 -0.0436,0.11693 -0.095,0.11693 -0.0514,0 -0.0935,0.0637 -0.0935,0.14159 0,0.0779 -0.0421,0.2252 -0.0935,0.32741 -0.0514,0.1022 -0.13564,0.26943 -0.18709,0.37163 -0.0515,0.1022 -0.0935,0.2681 -0.0935,0.36866 0,0.10056 -0.0421,0.20885 -0.0935,0.24065 -0.0514,0.0318 -0.0935,0.19424 -0.0935,0.36099 0,0.16675 -0.0393,0.34316 -0.0873,0.39204 -0.048,0.0489 -0.10408,0.25725 -0.12459,0.46305 -0.0331,0.33201 -0.0391,0.33992 -0.053,0.0702 z"
       id="path4843"
       inkscape:connector-curvature="0" />
    <path
       style="opacity:1;fill:#ff9191;fill-opacity:1;stroke:#fff4f4;stroke-width:3.8;stroke-linecap:round;stroke-linejoin:round;stroke-miterlimit:4;stroke-dasharray:none;stroke-dashoffset:0;stroke-opacity:1;paint-order:stroke fill markers"
       d="m 144.47535,257.52296 c -2.2751,-0.25304 -4.38572,-2.76215 -4.38572,-5.21375 0,-1.00791 0.49287,-2.79866 1.09526,-3.97945 0.6024,-1.18079 0.97296,-2.46561 0.82348,-2.85515 -0.14948,-0.38954 0.0125,-0.81432 0.35995,-0.94395 0.34745,-0.12964 -0.0542,-0.50814 -0.89259,-0.84112 -3.14634,-1.24965 -4.5611,-2.65804 -4.5611,-4.54057 0,-2.50101 0.44149,-3.37431 2.15341,-4.25958 1.41457,-0.7315 1.66847,-0.67253 4.66446,1.08337 3.37979,1.98084 4.05023,3.04906 3.49636,5.57079 -0.34436,1.56786 -0.33242,1.57768 1.1512,0.94661 0.82453,-0.35072 2.09447,-1.15897 2.82207,-1.7961 2.97206,-2.60253 6.02203,-3.15696 13.17457,-2.39489 5.09726,0.54309 9.52253,2.17255 11.33286,4.17295 0.81569,0.90132 0.75517,0.95926 -1.10665,1.05942 -5.85273,0.31486 -8.07208,0.54543 -10.80581,1.12263 -3.49803,0.73858 -7.63293,0.17786 -10.87125,-1.4742 -1.8985,-0.96854 -2.94917,-0.89971 -4.33642,0.2841 -0.1273,0.10863 0.56758,0.86458 1.54418,1.67988 1.30392,1.08856 1.84589,2.03455 2.04009,3.5609 0.27041,2.12533 0.29907,7.10736 0.0477,8.29625 -0.13974,0.66097 -4.09774,0.92763 -7.74608,0.52186 z"
       id="path4845"
       inkscape:connector-curvature="0" />
  </g>
</svg>
