<?xml version="1.0" encoding="UTF-8" standalone="no"?>
<!-- Created with Inkscape (http://www.inkscape.org/) -->

<svg
   xmlns:dc="http://purl.org/dc/elements/1.1/"
   xmlns:cc="http://creativecommons.org/ns#"
   xmlns:rdf="http://www.w3.org/1999/02/22-rdf-syntax-ns#"
   xmlns:svg="http://www.w3.org/2000/svg"
   xmlns="http://www.w3.org/2000/svg"
   xmlns:xlink="http://www.w3.org/1999/xlink"
   xmlns:sodipodi="http://sodipodi.sourceforge.net/DTD/sodipodi-0.dtd"
   xmlns:inkscape="http://www.inkscape.org/namespaces/inkscape"
   width="400mm"
   height="600mm"
   viewBox="0 0 400 600"
   version="1.1"
   id="svg8"
   inkscape:version="0.92.1 r15371"
   sodipodi:docname="SchoolMark.svg"
   inkscape:export-filename="C:\Users\Owner\WebDevelopment\img\SchoolMark2.png"
   inkscape:export-xdpi="96"
   inkscape:export-ydpi="96">
  <defs
     id="defs2" />
  <sodipodi:namedview
     id="base"
     pagecolor="#ffffff"
     bordercolor="#666666"
     borderopacity="1.0"
     inkscape:pageopacity="0.0"
     inkscape:pageshadow="2"
     inkscape:zoom="0.25000001"
     inkscape:cx="-149.96332"
     inkscape:cy="1670.905"
     inkscape:document-units="mm"
     inkscape:current-layer="g4527"
     showgrid="false"
     inkscape:snap-bbox="true"
     inkscape:bbox-nodes="true"
     inkscape:snap-object-midpoints="true"
     inkscape:snap-smooth-nodes="true"
     inkscape:snap-intersection-paths="true"
     inkscape:object-paths="true"
     inkscape:snap-bbox-edge-midpoints="true"
     inkscape:snap-bbox-midpoints="true"
     inkscape:snap-nodes="true"
     inkscape:bbox-paths="true"
     inkscape:snap-midpoints="true"
     inkscape:snap-global="false"
     inkscape:window-width="1280"
     inkscape:window-height="737"
     inkscape:window-x="-8"
     inkscape:window-y="-8"
     inkscape:window-maximized="1"
     showguides="false" />
  <metadata
     id="metadata5">
    <rdf:RDF>
      <cc:Work
         rdf:about="">
        <dc:format>image/svg+xml</dc:format>
        <dc:type
           rdf:resource="http://purl.org/dc/dcmitype/StillImage" />
        <dc:title />
      </cc:Work>
    </rdf:RDF>
  </metadata>
  <g
     inkscape:label="レイヤー 1"
     inkscape:groupmode="layer"
     id="layer1"
     transform="translate(0,303)" />
  <g
     inkscape:groupmode="layer"
     id="layer2"
     inkscape:label="もじ"
     style="display:inline"
     transform="translate(0,300)">
    <g
       id="g4527"
       transform="translate(-11.973675,-318.79909)">
      <circle
         r="96.911926"
         cy="149.19994"
         cx="149.29675"
         id="path4499"
         style="opacity:1;fill:#ffffff;fill-opacity:1;stroke:none;stroke-width:3.0999999;stroke-linecap:round;stroke-linejoin:round;stroke-miterlimit:4;stroke-dasharray:none;stroke-dashoffset:0;stroke-opacity:1;paint-order:stroke fill markers"
         transform="translate(0,3.0000131)"
         inkscape:export-xdpi="96"
         inkscape:export-ydpi="96" />
      <path
         transform="matrix(0.26458333,0,0,0.26458333,0,8.5416667e-6)"
         inkscape:connector-curvature="0"
         id="path4487"
         d="m 566.92969,134.07227 a 432.85714,432.85714 0 0 0 -432.85742,432.85742 432.85714,432.85714 0 0 0 47.42968,196.01367 c 2.31663,-2.10667 2.95699,-3.95384 3.6836,-7.70508 0.84498,-4.36233 2.61119,-7.45305 5.22265,-9.13672 2.17034,-1.39925 4.71226,-4.7676 5.64844,-7.48633 0.93619,-2.71869 3.13319,-5.86539 4.88086,-6.99218 2.14767,-1.38463 3.01091,-3.78743 2.66406,-7.41211 -0.28221,-2.94962 1.30701,-8.9075 3.53125,-13.24024 2.22425,-4.33277 4.06782,-8.73141 4.09766,-9.77539 0.0333,-1.15408 1.86641,-1.88602 4.67773,-1.86523 3.27101,0.0227 5.06427,-0.79257 6.12696,-2.79492 1.90913,-3.59713 10.27968,-6.78185 12.86132,-4.89258 1.1581,0.84744 3.87152,0.20609 6.61524,-1.5625 5.53337,-3.56746 14.43594,-5.39472 19.10156,-3.92188 2.48215,0.78361 4.39719,0.067 7.37891,-2.75586 1.33883,-1.26766 2.60018,-2.16055 3.82812,-2.70507 A 316.32081,316.32081 0 0 1 250.60742,566.92969 316.32081,316.32081 0 0 1 566.92969,250.60742 316.32081,316.32081 0 0 1 883.25,566.92969 316.32081,316.32081 0 0 1 566.92969,883.25 316.32081,316.32081 0 0 1 473.8125,869.21484 c 2.29361,10.86497 20.68515,63.5404 22.57812,64.06641 0.4966,0.13795 1.15851,-0.93871 1.47266,-2.39258 1.04644,-4.84426 3.2305,-4.42702 2.45313,0.46875 -0.42101,2.65096 -0.32084,10.52878 0.22265,17.50586 0.80036,10.27623 1.61094,13.0844 4.26367,14.78711 5.45885,3.50377 12.5419,12.52233 14.99024,19.08594 l 2.3125,6.20117 -9.41016,-1.97656 -9.4082,-1.97656 0.89648,4.2246 c 0.47536,2.23826 1.3353,4.78197 1.95508,5.83204 a 432.85714,432.85714 0 0 0 60.79102,4.74609 A 432.85714,432.85714 0 0 0 999.78711,566.92969 432.85714,432.85714 0 0 0 566.92969,134.07227 Z M 332.95117,779.27344 c -2.24106,1.00287 -4.49203,2.01129 -6.1875,2.76953 -5.10543,2.28321 -5.64325,3.01165 -4.72461,6.41015 0.86221,3.19015 0.67211,3.50437 -1.13086,1.86719 -2.69622,-2.44807 -6.19176,-0.34855 -7.49609,4.50391 -0.76339,2.84016 -1.82484,3.74262 -4.67383,3.97461 -5.98583,0.48744 -6.55019,1.71287 -3.99219,8.66992 1.57756,4.2906 1.62661,5.47344 0.13868,3.37305 -1.70687,-2.40964 -2.43046,-2.58949 -2.83789,-0.70313 -0.40638,1.88103 6.02251,11.89231 25.01171,38.94727 28.79838,41.031 24.38637,36.85997 56.09961,53.00781 13.26807,6.75579 17.73806,8.27998 20.02539,6.82813 2.02764,-1.2841 2.62559,-1.17821 1.92188,0.3457 -0.8047,1.74262 2.27757,5.38182 14.4707,17.08203 8.52129,8.17667 18.81007,17.48526 22.86524,20.6875 4.05513,3.20232 9.24201,7.8896 11.52734,10.41601 2.36772,2.61763 4.76589,4.00224 5.57422,3.21876 4.15823,-4.03042 15.94197,-5.01658 30.77344,-2.57618 6.68991,1.10083 7.78259,-0.4088 6.83593,-9.44531 -0.71557,-6.82719 -26.6013,-74.39327 -31.28515,-81.6582 -0.19938,-0.30926 -0.406,-0.59014 -0.61524,-0.86133 a 316.32081,316.32081 0 0 1 -8.83007,-3.22461 c -2.96853,0.10413 -3.38437,0.75422 -4.25,3.97461 -1.03397,3.84699 -1.16405,3.90522 -2.86329,1.26953 -1.13967,-1.76776 -3.58014,-2.43473 -6.77539,-1.85351 -2.74624,0.49949 -7.33573,0.32418 -10.19922,-0.38868 -2.94353,-0.73277 -6.7551,-0.29602 -8.77148,1.00391 -1.96154,1.26463 -4.79953,2.03207 -6.30469,1.70703 -2.14341,-0.46299 -3.07532,0.13181 -4.30469,2.74414 -1.63399,3.47172 -9.78454,7.59389 -12.47851,6.31055 -0.83577,-0.39818 -4.18333,-0.24769 -7.4375,0.33398 -3.25425,0.58152 -6.32062,0.42994 -6.81445,-0.33593 -1.44926,-2.2478 3.74826,-9.94006 10.7207,-15.86719 l 6.4668,-5.49805 -4.01172,-5.32422 c -3.80822,-5.05504 -4.26622,-5.19222 -9.04883,-2.70117 -2.77104,1.44333 -7.25284,2.22576 -9.95899,1.73828 -4.07385,-0.73398 -5.50698,-2.01683 -8.33593,-7.46094 -1.87924,-3.6161 -4.89469,-8.98028 -6.70117,-11.91992 l -3.28516,-5.3457 5.46094,-2.38477 c 2.66365,-1.16336 7.37663,-2.10625 11.10351,-2.27343 a 316.32081,316.32081 0 0 1 -45.68164,-41.36133 z m -55.22851,14.73047 c -0.88722,0.0598 -2.07548,0.46492 -3.78516,1.16211 -4.1982,1.71197 -5.67063,3.39887 -7.57422,8.66992 -2.33262,6.45955 -3.69999,7.01561 -3.74805,1.52344 -0.0608,-6.94681 -9.83492,-1.35346 -16.76367,9.59374 -3.54679,5.6038 -6.50689,8.52428 -10.57812,10.4375 -4.69096,2.20449 -5.59939,3.31577 -5.33789,6.52735 0.15751,1.93422 -0.20201,3.38712 -1.22852,4.45312 a 432.85714,432.85714 0 0 0 34.06445,37.49219 c 0.34526,0.067 0.69354,0.132 1.01368,0.20703 1.40223,0.32882 3.08538,0.68459 3.73828,0.79102 0.6529,0.1062 1.27661,0.33914 1.38672,0.51758 0.11017,0.17839 0.59117,0.32226 1.06836,0.32226 0.47714,0 0.96798,0.1653 1.09179,0.36524 0.12382,0.20031 0.6243,0.36328 1.11328,0.36328 0.48898,0 0.89063,0.16529 0.89063,0.36523 0,0.20069 0.24002,0.36328 0.5332,0.36328 0.61661,0 3.28856,1.43503 5.6582,3.03907 2.72941,1.84747 8.01172,7.7185 8.01172,8.90429 0,0.60688 1.90178,2.26172 2.59961,2.26172 0.37338,0 0.67969,0.16335 0.67969,0.36328 0,0.2007 0.23382,0.36328 0.51953,0.36328 0.28577,0 1.76147,0.57429 3.2793,1.27539 1.51787,0.70111 3.00505,1.27539 3.30469,1.27539 0.29979,0 0.54492,0.16335 0.54492,0.36329 0,0.20069 0.40938,0.36328 0.91015,0.36328 0.50078,0 0.91016,0.16492 0.91016,0.36523 0,0.20032 0.24752,0.36328 0.55078,0.36328 0.30331,0 0.83575,0.14419 1.1836,0.32032 0.68688,0.34771 4.80751,2.11206 6.27734,2.6875 0.50078,0.19578 1.19513,0.50077 1.54297,0.67773 0.34768,0.17726 0.96386,0.32227 1.36719,0.32227 0.40336,0 0.73242,0.16334 0.73242,0.36328 0,0.20069 0.40938,0.36328 0.91015,0.36328 0.50082,0 0.91211,0.16492 0.91211,0.36523 0,0.20032 0.39973,0.36328 0.88867,0.36328 0.48899,0 0.98139,0.15024 1.09376,0.33203 0.11251,0.1818 1.14541,0.61636 2.29687,0.9668 1.15146,0.35036 2.24914,0.77445 2.43945,0.94336 0.19038,0.16895 0.79466,0.3086 1.34375,0.3086 0.54906,0 1.10084,0.16334 1.22461,0.36328 0.12382,0.19993 0.86107,0.36328 1.63867,0.36328 0.77765,0 1.5149,0.16529 1.63868,0.36523 0.12381,0.20069 0.61461,0.36328 1.09179,0.36328 0.47715,0 0.96994,0.16335 1.09375,0.36328 0.12382,0.19994 0.54284,0.36524 0.93164,0.36524 0.38896,0 0.70825,0.12339 0.70899,0.27344 7.4e-4,0.15042 0.77777,0.57071 1.72851,0.93554 0.95079,0.36473 2.01349,0.81593 2.36133,1.00196 0.34768,0.18595 0.88355,0.33789 1.18946,0.33789 0.30602,0 0.88138,0.16529 1.27929,0.36523 0.39791,0.19994 1.04935,0.52824 1.44727,0.72852 0.39795,0.20069 0.97338,0.36328 1.27929,0.36328 0.30603,0 0.84161,0.14948 1.18946,0.33203 0.8684,0.45562 4.79877,2.2322 5.91211,2.67187 0.50081,0.19767 1.19512,0.50277 1.54297,0.67969 0.34767,0.17688 0.88232,0.32227 1.18554,0.32227 0.30331,0 0.55078,0.16334 0.55078,0.36328 0,0.20069 0.32793,0.36523 0.72852,0.36523 0.40064,0 0.72851,0.16335 0.72851,0.36328 0,0.19994 0.24839,0.36524 0.55274,0.36524 0.30448,0 1.16491,0.3804 1.91211,0.8457 0.7472,0.46538 1.68725,0.98184 2.08789,1.14844 0.65348,0.27175 0.66155,0.3183 0.0898,0.45508 -1.03991,0.24869 -0.73838,1.11443 1.05274,3.02929 1.71733,1.83595 1.78113,2.36711 0.13086,1.07618 -0.50078,-0.39175 -1.11485,-0.71628 -1.36524,-0.72071 -0.25035,-0.004 -0.45508,-0.17078 -0.45508,-0.37109 0,-0.20069 -0.24621,-0.36523 -0.54687,-0.36523 -0.30059,0 -0.54492,-0.16335 -0.54492,-0.36329 0,-0.20069 -0.31535,-0.36328 -0.69922,-0.36328 -0.3839,0 -0.75159,-0.14047 -0.81836,-0.31054 -0.1725,-0.43926 -3.50151,-2.24024 -4.14063,-2.24024 -0.29317,0 -0.53515,-0.16334 -0.53515,-0.36328 0,-0.20031 -0.32597,-0.36328 -0.72656,-0.36328 -0.40064,0 -0.72852,-0.1653 -0.72852,-0.36524 0,-0.20031 -0.31822,-0.36328 -0.70703,-0.36328 -0.38896,0 -0.80978,-0.16529 -0.9336,-0.36523 -0.12381,-0.20032 -0.52828,-0.36328 -0.90039,-0.36328 -0.3722,0 -0.73205,-0.12339 -0.79882,-0.27344 -0.20402,-0.45902 -2.88065,-1.57306 -3.24219,-1.34961 -0.4562,0.28195 -0.43471,1.98828 0.0234,1.98828 0.20012,0 0.36523,0.32582 0.36523,0.72656 0,0.40063 0.16316,0.72852 0.36328,0.72852 0.20051,0 0.36328,0.33133 0.36328,0.73437 0,0.40339 0.1443,1.01741 0.32032,1.36524 1.155,2.2862 1.71494,7.30561 1.33007,11.92578 -0.19154,2.29822 -0.38996,3.09375 -0.77148,3.09375 -0.28267,0 -0.51367,0.16334 -0.51367,0.36328 0,0.12846 -0.0745,0.23599 -0.17969,0.30078 a 432.85714,432.85714 0 0 0 79.73047,38.90625 c 2.14715,-5.41925 5.33134,-10.40813 9.29101,-14.12304 4.48608,-4.20881 4.48514,-4.20966 0.0293,-9.29883 -2.44925,-2.79916 -6.44399,-6.31807 -8.87695,-7.82031 -5.71741,-3.53035 -5.99221,-4.09005 -1.76953,-3.60547 3.12234,0.3583 3.15733,0.11611 0.3457,-2.39063 -1.72097,-1.53441 -5.73886,-5.43332 -8.92969,-8.66406 -3.19094,-3.2307 -6.75284,-6.56067 -7.91406,-7.39844 -1.16111,-0.83777 -2.57533,-2.08866 -3.14453,-2.7793 -2.8591,-3.4694 -9.45963,-7.55969 -28.57031,-17.70507 -16.29122,-8.64858 -21.35527,-10.63148 -22.9043,-8.96875 -2.1312,2.28774 -4.00928,0.95711 -2.65625,-1.88086 1.96602,-4.12706 -3.56849,-8.15575 -13.19141,-9.60156 -5.43447,-0.81657 -9.20319,-1.92048 -8.37695,-2.45313 0.82622,-0.53272 4.88598,-0.46327 9.02148,0.15234 l 7.51758,1.11914 -23.76953,-36.86914 c -22.88495,-35.49622 -23.9718,-36.9452 -29.18945,-38.91797 -3.42896,-1.29655 -5.98464,-3.44738 -6.95703,-5.85546 -0.84025,-2.08094 -1.4842,-2.94341 -2.96289,-2.84375 z m -54.53711,3.82617 c -1.90397,0.0922 -6.32082,1.97603 -13.21875,5.65039 -1.33326,0.7102 -2.63793,1.36277 -3.90039,1.9707 a 432.85714,432.85714 0 0 0 7.45312,10.94336 c 2.23121,-5.18577 5.5725,-10.99621 7.80274,-13.46289 3.1586,-3.49334 3.76724,-5.19372 1.86328,-5.10156 z m 60.48633,95.35547 c -0.0145,10e-6 -0.0404,0.0119 -0.0566,0.0137 a 432.85714,432.85714 0 0 0 12.43165,10.33789 c 0.71539,-0.32385 2.35304,-0.75843 4.33789,-1.12695 1.10742,-0.20561 1.67328,-0.50676 1.75585,-0.93555 0.12889,-0.66951 -0.66347,-1.08922 -4.66406,-2.46289 -1.54193,-0.52951 -2.87787,-1.06529 -3.72851,-1.49805 -0.34768,-0.17726 -0.96187,-0.32226 -1.36524,-0.32226 -0.40332,0 -0.73437,-0.16335 -0.73437,-0.36329 0,-0.20031 -0.20463,-0.36807 -0.45508,-0.37109 -0.25036,-0.003 -1.91456,-0.74024 -3.69727,-1.63867 -1.78274,-0.89851 -3.50363,-1.63304 -3.82421,-1.63281 z m 250.58203,5.1289 c 2.65946,-0.0272 5.77981,1.66661 13.07031,5.93946 13.15914,7.71235 15.76977,11.87118 13.61328,21.68945 -1.34075,6.10443 -1.29402,6.14262 4.48242,3.68555 3.21029,-1.36551 8.15346,-4.51349 10.98633,-6.99414 11.57167,-10.13288 23.44672,-12.29134 51.29492,-9.32422 19.84607,2.11449 37.07652,8.45953 44.125,16.24804 3.17586,3.50926 2.94035,3.73503 -4.30859,4.125 -22.78745,1.22589 -31.42855,2.12379 -42.07227,4.3711 -13.61949,2.87565 -29.71981,0.69199 -42.32812,-5.74024 -7.39178,-3.77098 -11.48159,-3.50366 -16.88281,1.10547 -0.49561,0.42297 2.20936,3.36667 6.01171,6.54102 5.07678,4.23828 7.18727,7.9205 7.94336,13.86328 1.05287,8.27493 1.16441,27.67383 0.18555,32.30273 -0.54406,2.57348 -15.95349,3.6111 -30.1582,2.03125 -8.85804,-0.98521 -17.07618,-10.75361 -17.07618,-20.29882 0,-3.92429 1.91829,-10.89677 4.26368,-15.49415 2.34542,-4.59734 3.789,-9.60053 3.20703,-11.11718 -0.58201,-1.51669 0.0477,-3.17107 1.40039,-3.67578 1.35277,-0.50476 -0.21023,-1.97699 -3.47461,-3.27344 -12.25021,-4.8655 -17.75781,-10.35013 -17.75781,-17.67969 0,-9.73761 1.71945,-13.13721 8.38476,-16.58398 2.06535,-1.06803 3.49417,-1.70439 5.08985,-1.72071 z m -50.54493,79.25977 c -0.90111,-0.0476 -1.48403,0.10124 -1.57226,0.50976 -0.13871,0.64128 4.0545,4.08959 9.31836,7.66211 9.44194,6.408 12.31426,5.80373 7.61328,-1.59961 -1.56838,-2.46777 -11.45454,-6.36577 -15.35938,-6.57226 z m -10.71093,3.82617 c -0.30592,-0.11631 -2.94997,2.50721 -6.32422,6.09961 a 432.85714,432.85714 0 0 0 22.5,5.04883 c -8.51499,-5.98792 -15.78369,-10.99953 -16.17578,-11.14844 z"
         style="opacity:1;fill:#ffc22d;fill-opacity:1;stroke:#ffc22d;stroke-width:18.14173317;stroke-linecap:round;stroke-linejoin:miter;stroke-miterlimit:4;stroke-dasharray:none;stroke-dashoffset:0;stroke-opacity:1;paint-order:stroke fill markers"
         inkscape:export-xdpi="96"
         inkscape:export-ydpi="96" />
      <text
         transform="matrix(0.56841094,0.94616159,-0.94616159,0.56841094,207.31915,-76.497606)"
         id="text4511"
         style="font-style:normal;font-variant:normal;font-weight:normal;font-stretch:normal;font-size:16.93333244px;line-height:17.19791603px;font-family:AMEMUCHIGOTHICMONO-02;-inkscape-font-specification:'AMEMUCHIGOTHICMONO-02, Normal';font-variant-ligatures:normal;font-variant-caps:normal;font-variant-numeric:normal;font-feature-settings:normal;text-align:start;letter-spacing:0px;word-spacing:0px;writing-mode:lr-tb;text-anchor:start;fill:#ffffff;fill-opacity:1;stroke:none;stroke-width:0.26458332"
         xml:space="preserve"
         inkscape:export-xdpi="96"
         inkscape:export-ydpi="96"><textPath
           style="fill:#ffffff;fill-opacity:1"
           id="textPath4539"
           xlink:href="#path4536"><tspan
   dx="150.41907"
   id="tspan4509"
   style="font-style:normal;font-variant:normal;font-weight:normal;font-stretch:normal;font-size:28.22222137px;font-family:AMEMUCHIGOTHICMONO-02;-inkscape-font-specification:'AMEMUCHIGOTHICMONO-02, Normal';font-variant-ligatures:normal;font-variant-caps:normal;font-variant-numeric:normal;font-feature-settings:normal;text-align:start;writing-mode:lr-tb;text-anchor:start;fill:#ffffff;fill-opacity:1;stroke-width:0.26458332">LONDON MANAGEMENT SCHOOL</tspan></textPath></text>
      <path
         inkscape:connector-curvature="0"
         id="path4536"
         d="M 227.85389,146.99986 A 77.853952,77.853952 0 0 1 149.99993,224.85381 77.853952,77.853952 0 0 1 72.146105,146.99986 77.853952,77.853952 0 0 1 149.99993,69.146192 77.853952,77.853952 0 0 1 227.85389,146.99986 Z"
         style="opacity:1;fill:none;fill-opacity:1;stroke:#ffc22d;stroke-width:3.25300002;stroke-linecap:round;stroke-linejoin:miter;stroke-miterlimit:4;stroke-dasharray:none;stroke-dashoffset:0;stroke-opacity:1;paint-order:stroke fill markers"
         transform="translate(0,3.0000131)"
         inkscape:export-xdpi="96"
         inkscape:export-ydpi="96" />
      <g
         id="g4625"
         transform="translate(0,3.0000131)"
         inkscape:export-xdpi="96"
         inkscape:export-ydpi="96">
        <path
           style="opacity:1;fill:#ff9191;fill-opacity:1;stroke:#ffffff;stroke-width:3.79999995;stroke-linecap:round;stroke-linejoin:round;stroke-miterlimit:4;stroke-dasharray:none;stroke-dashoffset:0;stroke-opacity:1;paint-order:stroke fill markers"
           d="m 136.45751,274.96984 c -0.0226,-0.45627 -1.50638,-5.79358 -1.96875,-7.08157 -0.156,-0.43473 -0.57572,-2.04061 -0.93267,-3.5686 l -0.64892,-2.77819 -4.0395,-2.84188 c -2.22173,-1.56302 -4.1229,-2.87353 -4.22483,-2.91224 -0.20733,-0.0788 -4.58784,4.72693 -5.5968,6.13999 -0.35685,0.49979 -0.89512,1.38847 -1.19614,1.97486 -0.30101,0.58642 -0.76587,1.33043 -1.03298,1.6534 -0.26714,0.32298 -0.38545,0.74269 -0.26294,0.93273 0.12252,0.19002 -0.071,0.40695 -0.43002,0.48206 -0.35901,0.0751 -0.58012,0.24946 -0.49135,0.38747 0.0888,0.13797 -0.23001,0.53649 -0.70837,0.8856 -0.73965,0.5398 -0.90952,0.50156 -1.13552,-0.25567 -0.14614,-0.48973 -0.86852,-2.34505 -1.60524,-4.12294 -0.73673,-1.77789 -1.4517,-3.7606 -1.58881,-4.40607 -0.64545,-3.03846 0.65037,-7.0097 3.00965,-9.22314 1.1522,-1.08099 1.1522,-1.08103 0.008,-2.38814 -0.62906,-0.71893 -1.65501,-1.62284 -2.27989,-2.00868 -1.46846,-0.90673 -1.5391,-1.05068 -0.45455,-0.92622 0.80194,0.092 0.81096,0.0297 0.0888,-0.61413 -0.44201,-0.3941 -1.4742,-1.39545 -2.29374,-2.22523 -0.81956,-0.82977 -1.73409,-1.68473 -2.03233,-1.8999 -0.29822,-0.21517 -0.66183,-0.53636 -0.80802,-0.71374 -0.73433,-0.89109 -2.42965,-1.94169 -7.338041,-4.54743 -4.184237,-2.2213 -5.484856,-2.73057 -5.882711,-2.30352 -0.547376,0.58759 -1.029614,0.24545 -0.682101,-0.48345 0.504952,-1.06 -0.916191,-2.09434 -3.387741,-2.46569 -1.39579,-0.20972 -2.364171,-0.49326 -2.151959,-0.63006 0.212207,-0.13683 1.254904,-0.11919 2.317068,0.0389 l 1.931215,0.28769 -6.105204,-9.46962 c -5.877772,-9.11686 -6.156996,-9.48924 -7.497097,-9.99592 -0.880693,-0.33301 -1.536837,-0.8853 -1.786587,-1.5038 -0.345296,-0.85514 -0.56224,-0.90916 -1.733209,-0.43165 -1.078267,0.4397 -1.456514,0.87264 -1.945431,2.22645 -0.599111,1.65908 -0.950467,1.80186 -0.962809,0.39125 -0.01562,-1.78422 -2.52572,-0.34764 -4.3053,2.46404 -0.910958,1.43928 -1.671184,2.18942 -2.71684,2.68082 -1.204827,0.5662 -1.438141,0.85152 -1.370978,1.67638 0.110983,1.36282 -0.763028,1.80583 -3.495991,1.772 -2.542231,-0.0315 -3.540072,-0.84645 -2.526127,-2.06332 0.344557,-0.41351 1.086256,-1.90864 1.648204,-3.32251 0.561951,-1.41386 1.534522,-3.13781 2.161258,-3.83099 1.622512,-1.79446 0.626867,-1.74627 -2.916465,0.14117 -1.673179,0.89127 -3.25524,1.51896 -3.515704,1.39489 -0.260455,-0.12407 -0.711235,-0.66421 -1.001727,-1.20029 -0.582004,-1.07399 -4.954939,-4.1909 -6.545938,-4.66577 -1.091344,-0.32572 -2.000898,-1.47307 -2.009214,-2.53453 -0.004,-0.51056 0.219383,-0.68326 0.962088,-0.74375 0.532006,-0.0434 1.96868,-0.72437 3.19258,-1.51343 2.017144,-1.30048 2.255964,-1.59303 2.553236,-3.12774 0.217026,-1.12042 0.670728,-1.91404 1.341455,-2.34647 0.55743,-0.35938 1.210252,-1.22475 1.450701,-1.92303 0.24045,-0.69827 0.804456,-1.50639 1.253328,-1.79579 0.551608,-0.35563 0.773436,-0.97266 0.684353,-1.90362 -0.07248,-0.75758 0.335611,-2.2879 0.906885,-3.40072 0.571276,-1.11283 1.044965,-2.2427 1.05263,-2.51084 0.0085,-0.29641 0.479529,-0.48407 1.201588,-0.47873 0.840126,0.006 1.300543,-0.20392 1.573483,-0.7182 0.490342,-0.92389 2.640093,-1.74161 3.303164,-1.25637 0.297446,0.21765 0.994581,0.053 1.699276,-0.40125 1.421192,-0.91626 3.707816,-1.38589 4.906133,-1.00761 0.637514,0.20126 1.129386,0.0176 1.895212,-0.70746 1.232351,-1.16684 2.210238,-1.14272 3.446535,0.0851 0.487453,0.48411 1.263543,0.84948 1.724629,0.81192 0.461079,-0.0377 1.240887,0.34684 1.732896,0.85417 0.840475,0.86669 1.668825,0.78865 2.79852,-0.26361 0.144871,-0.13491 0.638181,-0.3472 1.096301,-0.47167 0.818328,-0.22233 0.828745,-0.20366 0.595268,1.06821 -0.232759,1.26805 -0.220703,1.28991 0.590519,1.06946 0.455459,-0.12377 1.411486,-0.82481 2.124522,-1.55789 0.713056,-0.73309 1.420936,-1.41857 1.573077,-1.52332 0.152466,-0.10421 1.188771,1.3214 2.303596,3.16917 l 2.026953,3.35959 -0.89255,1.31755 c -0.490903,0.72466 -1.493343,2.18459 -2.227645,3.24428 -2.128752,3.07205 -1.96048,3.33591 1.780608,2.7923 2.343604,-0.34054 3.105903,-0.30582 2.675014,0.12118 -0.906307,0.8986 -1.300319,2.89961 -1.051173,5.33864 0.269059,2.63416 -0.25084,3.70316 -2.232599,4.59048 -0.819789,0.36705 -2.156284,0.96511 -2.969989,1.32901 -1.311279,0.58642 -1.449211,0.77362 -1.213268,1.64649 0.221451,0.81936 0.172648,0.89992 -0.290425,0.47943 -0.692498,-0.62876 -1.590224,-0.0892 -1.925229,1.1571 -0.196069,0.72946 -0.468578,0.96122 -1.200313,1.0208 -1.537402,0.1252 -1.682333,0.43991 -1.025335,2.22676 0.40518,1.10199 0.417623,1.40559 0.03546,0.86612 -0.438391,-0.61889 -0.624225,-0.66487 -0.728874,-0.18038 -0.104374,0.48313 1.546749,3.05414 6.423935,10.00293 7.396576,10.5384 6.263186,9.46744 14.408414,13.61485 3.40777,1.73516 4.55587,2.12665 5.14335,1.75375 0.52078,-0.3298 0.67441,-0.30267 0.49367,0.0887 -0.20668,0.44757 0.58491,1.38196 3.7166,4.38705 2.1886,2.10009 4.83138,4.49129 5.87291,5.31375 1.04152,0.82249 2.37391,2.02634 2.96087,2.67523 0.60813,0.67231 1.2239,1.02793 1.43151,0.8267 1.06801,-1.03517 4.09441,-1.28856 7.90372,-0.66176 1.71824,0.28273 1.99892,-0.10515 1.75578,-2.42609 -0.18379,-1.75349 -6.83233,-19.10734 -8.03533,-20.97327 -0.47636,-0.73889 -1.04953,-1.04783 -1.95631,-1.05453 -1.20751,-0.009 -1.29885,0.0512 -1.56091,1.02608 -0.26557,0.98806 -0.29932,1.00303 -0.73575,0.32608 -0.29272,-0.45403 -0.91916,-0.62546 -1.73983,-0.47618 -0.70534,0.1283 -1.88417,0.0835 -2.61963,-0.0996 -0.75602,-0.18821 -1.73532,-0.0762 -2.25321,0.25767 -0.5038,0.32481 -1.23229,0.52224 -1.61887,0.43876 -0.55052,-0.11891 -0.79025,0.0338 -1.106,0.70473 -0.41968,0.89168 -2.51297,1.95016 -3.20489,1.62055 -0.21466,-0.10227 -1.07416,-0.0637 -1.90996,0.0857 -0.83583,0.14936 -1.62345,0.11061 -1.75029,-0.0861 -0.37222,-0.57733 0.96244,-2.55274 2.75324,-4.07506 l 1.66125,-1.41219 -1.03037,-1.3677 c -0.9781,-1.29833 -1.09601,-1.33351 -2.32438,-0.69371 -0.71171,0.3707 -1.86269,0.57154 -2.55773,0.44633 -1.046337,-0.18851 -1.414614,-0.5181 -2.141201,-1.91636 -0.482665,-0.92876 -1.257141,-2.30644 -1.721119,-3.06145 l -0.84362,-1.37274 1.40279,-0.61266 c 0.771536,-0.33697 2.214213,-0.60298 3.20595,-0.5911 0.99175,0.0118 2.2548,-0.10118 2.80679,-0.25118 0.86439,-0.23488 0.90978,-0.34002 0.32718,-0.75788 -2.27151,-1.62912 -3.32065,-4.45993 -1.97457,-5.32777 0.28337,-0.1827 0.41403,-0.48917 0.29032,-0.68105 -0.12369,-0.19187 0.19444,-0.61922 0.70699,-0.94967 0.51256,-0.33045 1.05429,-1.05613 1.20386,-1.61261 0.25762,-0.95844 0.34987,-0.99187 1.74918,-0.63386 0.81248,0.20788 1.63291,0.27759 1.82318,0.15491 0.19027,-0.12268 1.09126,-0.34862 2.00219,-0.50215 0.91091,-0.15356 2.40061,-0.67569 3.31042,-1.16045 3.40884,-1.81626 4.62504,-2.19463 5.24019,-1.63028 0.32889,0.30175 0.70439,0.49533 0.83444,0.4302 1.80352,-0.9032 2.51576,-1.06084 3.43238,-0.75962 l 1.08577,0.35678 0.33091,-1.97924 c 0.45202,-2.70371 0.99436,-2.93999 2.1835,-0.95123 0.52751,0.88224 0.99019,1.58404 1.02818,1.55955 0.0379,-0.0245 0.45447,-0.53837 0.92556,-1.14194 2.06937,-2.65149 3.95844,-1.75241 5.13095,2.44195 0.60048,2.14817 0.57101,2.59869 -0.23639,3.61081 -0.5074,0.63601 -0.79716,1.35087 -0.64391,1.58858 0.20065,0.31121 1.28347,-0.19073 3.86892,-1.79346 1.97468,-1.22408 3.77629,-2.18546 4.00361,-2.13634 0.60613,0.13093 1.86332,4.57363 1.6545,5.84683 -0.32404,1.97592 -1.89565,4.08676 -5.1757,6.95153 -1.77833,1.55319 -3.38943,3.02635 -3.58021,3.27372 -0.19081,0.24737 -0.70318,0.48678 -1.13866,0.53197 -1.00292,0.10369 -2.78012,0.43223 -3.72947,0.6885 -0.92953,0.25096 -0.44259,1.91896 0.75416,2.58326 0.45898,0.25479 1.05616,0.83502 1.32704,1.28939 0.45574,0.76429 0.40982,0.77167 -0.6127,0.098 -1.02,-0.67206 -1.24877,-0.63639 -2.9659,0.46236 -1.57151,1.00603 -1.87226,1.38488 -1.93545,2.44168 -0.0693,1.1594 5.3412,16.75283 5.86313,16.89785 0.12754,0.0354 0.29794,-0.2411 0.37862,-0.61451 0.26877,-1.2442 0.82957,-1.13675 0.62991,0.12068 -0.10813,0.68088 -0.0824,2.70412 0.0572,4.49611 0.20556,2.63935 0.41358,3.36072 1.09491,3.79805 1.40205,0.89991 3.22136,3.21624 3.85019,4.90204 l 0.59401,1.59251 -2.41666,-0.50765 -2.41668,-0.50765 0.23053,1.08499 c 0.12674,0.59675 0.36139,1.28804 0.5214,1.53623 0.15995,0.24818 3.24789,2.47863 6.86195,4.95659 6.56602,4.50193 6.57029,4.50572 5.5838,4.98919 -0.88747,0.43496 -1.48146,0.13924 -5.87866,-2.92666 -2.69028,-1.87576 -4.92905,-3.21044 -4.97503,-2.96593 -0.046,0.24452 0.27061,1.88304 0.70351,3.64115 1.38281,5.61394 1.70368,7.50147 1.35172,7.93995 -0.18893,0.2353 -0.35295,0.23826 -0.36433,0.007 z m -5.11888,-18.47706 c -0.49578,-0.78009 -4.22793,-2.11678 -4.3488,-1.55718 -0.0356,0.1647 1.04148,1.05018 2.39345,1.96775 2.42507,1.64583 3.16276,1.49093 1.95536,-0.41055 z"
           id="path4839"
           inkscape:connector-curvature="0" />
        <path
           style="opacity:1;fill:#ff9191;fill-opacity:1;stroke:#ffffff;stroke-width:3.79999995;stroke-linecap:round;stroke-linejoin:round;stroke-miterlimit:4;stroke-dasharray:none;stroke-dashoffset:0;stroke-opacity:1;paint-order:stroke fill markers"
           d="m 86.405939,251.30081 c -0.009,-0.16721 -0.0578,-0.30402 -0.10927,-0.30402 -0.0514,0 -0.0935,-0.0988 -0.0935,-0.21948 0,-0.25679 -0.25717,-0.80951 -0.37664,-0.80951 -0.0453,0 -0.15199,0.14685 -0.23716,0.32633 l -0.15485,0.32634 -0.31509,-0.34972 c -0.1733,-0.19234 -0.31607,-0.38129 -0.31726,-0.41988 -0.003,-0.11084 -0.54756,-0.0816 -0.74205,0.0398 -0.14109,0.0881 -0.20591,0.0801 -0.32614,-0.0401 -0.0825,-0.0825 -0.15006,-0.2162 -0.15006,-0.29705 0,-0.0808 -0.0321,-0.147 -0.0714,-0.147 -0.0393,0 -0.11291,-0.0947 -0.1637,-0.21047 -0.10131,-0.23092 -0.47598,-0.33198 -0.63633,-0.17163 -0.17228,0.17228 -0.29391,0.114 -0.42278,-0.20255 -0.39971,-0.98184 -0.5001,-1.06041 -1.02091,-0.79906 -0.11568,0.0581 -0.22259,0.088 -0.23757,0.0664 -0.11953,-0.17162 -0.53431,-1.09564 -0.53431,-1.19029 0,-0.0657 -0.0755,-0.20059 -0.1679,-0.29971 -0.13169,-0.14136 -0.22751,-0.16404 -0.44433,-0.10516 l -0.27644,0.0751 -0.0942,-0.6159 c -0.0774,-0.50624 -0.12741,-0.62041 -0.28063,-0.64124 -0.12618,-0.0171 -0.26185,0.0862 -0.41989,0.32 l -0.23348,0.34533 -0.0655,-0.31999 c -0.20171,-0.98603 -0.32328,-1.1481 -0.63063,-0.84075 l -0.19335,0.19335 v -0.22834 c 0,-0.12559 -0.0421,-0.25436 -0.0935,-0.28616 -0.0515,-0.0318 -0.0935,-0.27843 -0.0935,-0.54808 0,-0.26964 -0.0378,-0.53025 -0.084,-0.57913 -0.0462,-0.0489 -0.10542,-0.25724 -0.13166,-0.46304 -0.0262,-0.2058 -0.11948,-0.79513 -0.20721,-1.30962 -0.25371,-1.48786 -0.2614,-1.70125 -0.0922,-2.55774 0.20707,-1.04835 0.48745,-1.88562 0.63144,-1.88562 0.0389,0 0.0707,-0.0476 0.0707,-0.10585 0,-0.13781 0.78532,-0.92313 0.92313,-0.92313 0.0582,0 0.10586,-0.0421 0.10586,-0.0935 0,-0.0514 0.0842,-0.0935 0.18708,-0.0935 0.1029,0 0.18709,-0.0329 0.18709,-0.0731 0,-0.0781 0.52846,-0.23631 1.21483,-0.36375 0.28443,-0.0528 0.42978,-0.13032 0.45099,-0.24045 0.0331,-0.17196 -0.17059,-0.27948 -1.1981,-0.6323 -0.39603,-0.136 -0.73908,-0.27395 -0.95756,-0.3851 -0.0893,-0.0455 -0.24719,-0.0826 -0.35079,-0.0826 -0.10359,0 -0.18836,-0.0421 -0.18836,-0.0935 0,-0.0514 -0.0526,-0.0942 -0.11693,-0.0949 -0.0643,-7.9e-4 -0.49155,-0.19018 -0.94942,-0.42094 -0.45788,-0.23077 -0.89988,-0.41953 -0.98222,-0.41947 -0.0824,6e-5 -0.276,0.10888 -0.43035,0.24181 -0.15435,0.13294 -0.42391,0.35389 -0.59902,0.491 -0.17511,0.13711 -0.41524,0.34401 -0.53363,0.45977 -0.11838,0.11576 -0.24872,0.21088 -0.28965,0.21138 -0.0409,5.3e-4 -0.26384,0.14727 -0.49536,0.32616 -0.65687,0.50754 -0.64399,0.49934 -1.59025,1.01216 -0.28297,0.15336 -0.6949,0.37781 -0.91538,0.49879 -0.22049,0.12097 -0.46253,0.21996 -0.53788,0.21996 -0.0753,0 -0.137,0.0421 -0.137,0.0935 0,0.0514 -0.0848,0.0935 -0.18836,0.0935 -0.10359,0 -0.26145,0.0372 -0.35079,0.0826 -0.24877,0.12655 -0.58414,0.26098 -1.09787,0.44006 -0.25725,0.0897 -0.50772,0.19818 -0.55659,0.24112 -0.0489,0.0429 -0.1832,0.0781 -0.2985,0.0781 -0.1153,0 -0.23565,0.0421 -0.26745,0.0935 -0.0318,0.0514 -0.17912,0.0935 -0.3274,0.0935 -0.14828,0 -0.29273,0.0374 -0.32102,0.0832 -0.0283,0.0458 -0.18862,0.10658 -0.35631,0.13513 -0.16769,0.0285 -0.50484,0.0964 -0.74922,0.15065 -2.64383,0.58749 -2.81853,0.60499 -6.01022,0.60207 -2.46782,-0.002 -3.14125,-0.0316 -3.83532,-0.16737 -1.17027,-0.22883 -1.72686,-0.33494 -2.08223,-0.39697 -0.16769,-0.0293 -0.32803,-0.0907 -0.35631,-0.13642 -0.11173,-0.18078 -0.38633,-0.0609 -0.7695,0.33587 -0.47789,0.49487 -0.95468,0.84938 -0.95468,0.70983 0,-0.0549 -0.10524,-0.0999 -0.23387,-0.0999 -0.12862,0 -0.23386,-0.0421 -0.23386,-0.0935 0,-0.0515 -0.10523,-0.0935 -0.23386,-0.0935 -0.12862,0 -0.23386,0.0421 -0.23386,0.0935 0,0.0514 -0.0596,0.0935 -0.13252,0.0935 -0.0729,0 -0.14655,0.0331 -0.1637,0.0735 -0.0171,0.0404 -0.16799,0.16959 -0.3352,0.287 -0.2573,0.18066 -0.30402,0.1899 -0.30402,0.0601 0,-0.18901 -0.22088,-0.42064 -0.4011,-0.42064 -0.0736,0 -0.33301,0.17532 -0.57644,0.38961 l -0.44262,0.3896 0.0314,-0.36502 c 0.0251,-0.29156 -0.002,-0.37152 -0.13631,-0.39733 -0.0923,-0.0178 -0.21836,0.009 -0.2802,0.059 -0.26281,0.2134 -0.8329,0.48479 -0.9136,0.43491 -0.0481,-0.0298 -0.0875,-0.13879 -0.0875,-0.24233 0,-0.17702 -0.19835,-0.45552 -0.32442,-0.45552 -0.0314,0 -0.27648,0.14806 -0.54455,0.32903 l -0.48742,0.32902 -0.0468,-0.49273 c -0.0299,-0.31446 -0.0891,-0.48934 -0.16371,-0.48337 -0.0643,0.005 -0.17352,0.0157 -0.24269,0.0234 -0.0692,0.008 -0.2447,0.11623 -0.39007,0.24114 -0.14536,0.12491 -0.3457,0.24839 -0.44519,0.27441 -0.1645,0.043 -0.17541,0.0108 -0.12042,-0.35588 0.049,-0.32657 0.0308,-0.41457 -0.0957,-0.46311 -0.16004,-0.0614 -0.22213,-0.0253 -0.82684,0.48118 -0.0768,0.0643 -0.18349,0.11693 -0.23711,0.11693 -0.0536,0 -0.0975,0.0421 -0.0975,0.0935 0,0.0514 -0.12381,0.0935 -0.27512,0.0935 -0.15131,0 -0.30113,0.0421 -0.33292,0.0935 -0.0318,0.0515 -0.13525,0.0935 -0.22988,0.0935 -0.18869,0 -1.17907,0.49615 -1.41451,0.70861 -0.0812,0.0733 -0.19699,0.13328 -0.25725,0.13328 -0.0603,0 -0.10956,0.033 -0.10956,0.0734 0,0.0404 -0.11577,0.14189 -0.25725,0.22563 -0.14149,0.0837 -0.36157,0.24289 -0.48908,0.35367 -0.2946,0.25599 -0.35818,0.0903 -0.10292,-0.26818 0.10694,-0.15018 0.19443,-0.31917 0.19443,-0.37555 0,-0.0564 0.0421,-0.10249 0.0935,-0.10249 0.0515,0 0.094,-0.0526 0.0945,-0.11693 7.9e-4,-0.0972 0.20748,-0.39717 0.72535,-1.05236 0.0407,-0.0514 0.17591,-0.24088 0.30055,-0.42095 0.2859,-0.41306 1.61482,-1.89018 2.09804,-2.33201 0.20091,-0.1837 0.47881,-0.43924 0.61756,-0.56787 0.13875,-0.12862 0.39194,-0.33909 0.56265,-0.46772 0.17071,-0.12862 0.47548,-0.37057 0.67728,-0.53767 0.20179,-0.1671 0.48931,-0.37613 0.63893,-0.46451 0.14961,-0.0884 0.27202,-0.19371 0.27202,-0.23406 0,-0.0404 0.0425,-0.0734 0.0944,-0.0734 0.0519,0 0.44129,-0.22299 0.86527,-0.49552 0.81753,-0.52551 2.35792,-1.30034 3.67077,-1.84645 0.10289,-0.0428 0.35546,-0.13129 0.56126,-0.19664 0.2058,-0.0653 0.41417,-0.15233 0.46304,-0.19328 0.0489,-0.0409 0.18321,-0.0744 0.2985,-0.0744 0.1153,0 0.23565,-0.0421 0.26745,-0.0935 0.0318,-0.0514 0.15004,-0.0938 0.26277,-0.0941 0.11272,-2.6e-4 0.32552,-0.0635 0.47289,-0.14031 0.14737,-0.0769 0.36588,-0.13974 0.48559,-0.13974 0.1197,0 0.24366,-0.0421 0.27546,-0.0936 0.0318,-0.0514 0.22122,-0.0935 0.42095,-0.0935 0.19972,0 0.38915,-0.0421 0.42095,-0.0935 0.0318,-0.0515 0.24227,-0.0935 0.46772,-0.0935 0.22545,0 0.43592,-0.0421 0.46772,-0.0935 0.0318,-0.0515 0.27334,-0.0936 0.53676,-0.0936 0.26342,0 0.60822,-0.0398 0.76622,-0.0884 0.158,-0.0486 0.53984,-0.15928 0.84854,-0.24589 0.3087,-0.0866 0.60126,-0.19415 0.65013,-0.23899 0.0489,-0.0448 0.2253,-0.0815 0.39205,-0.0815 0.16674,0 0.32919,-0.0421 0.36099,-0.0935 0.0318,-0.0515 0.22122,-0.0936 0.42094,-0.0936 0.19973,0 0.38916,-0.0421 0.42095,-0.0935 0.0318,-0.0514 0.2153,-0.0935 0.40777,-0.0935 0.19247,0 0.38993,-0.038 0.43881,-0.0845 0.0489,-0.0465 0.27829,-0.10683 0.50982,-0.13416 0.23152,-0.0273 0.65247,-0.093 0.93544,-0.14604 3.11336,-0.58304 6.76157,-0.68495 8.65285,-0.24169 0.36015,0.0844 0.79201,0.17583 0.9597,0.20316 0.16769,0.0273 0.32803,0.0871 0.35631,0.13291 0.0283,0.0458 0.15169,0.0832 0.27425,0.0832 0.12255,0 0.24883,0.0421 0.28063,0.0935 0.0318,0.0515 0.16056,0.0936 0.28615,0.0936 0.12559,0 0.22834,0.0421 0.22834,0.0935 0,0.0515 0.0617,0.0935 0.137,0.0935 0.15837,0 0.84464,0.36861 1.45326,0.78058 0.70102,0.47451 2.05797,1.98254 2.05797,2.2871 0,0.15587 0.48834,0.58055 0.66757,0.58055 0.0959,0 0.17433,0.0421 0.17433,0.0935 0,0.0515 0.0601,0.0935 0.13348,0.0935 0.0734,0 0.45246,0.14734 0.8423,0.32741 0.38985,0.18007 0.77177,0.3274 0.84873,0.3274 0.077,0 0.13992,0.0421 0.13992,0.0935 0,0.0515 0.10524,0.0935 0.23386,0.0935 0.12862,0 0.23386,0.0421 0.23386,0.0936 0,0.0514 0.0637,0.0935 0.14159,0.0935 0.0779,0 0.21468,0.037 0.30402,0.0822 0.17642,0.0893 1.23486,0.54221 1.61237,0.69 0.12862,0.0503 0.30695,0.12873 0.39629,0.17418 0.0893,0.0455 0.2472,0.0826 0.35079,0.0826 0.1036,0 0.18836,0.0421 0.18836,0.0935 0,0.0515 0.10524,0.0935 0.23386,0.0935 0.12863,0 0.23386,0.0421 0.23386,0.0936 0,0.0514 0.10276,0.0935 0.22834,0.0935 0.12559,0 0.25195,0.0382 0.28081,0.0849 0.0289,0.0467 0.29443,0.15852 0.59017,0.24853 0.29574,0.09 0.5777,0.19913 0.62658,0.24251 0.0489,0.0434 0.20424,0.0789 0.34527,0.0789 0.14102,0 0.28242,0.0421 0.31421,0.0935 0.0318,0.0514 0.22123,0.0935 0.42095,0.0935 0.19973,0 0.38916,0.0421 0.42095,0.0935 0.0318,0.0515 0.15808,0.0935 0.28064,0.0935 0.12255,0 0.24883,0.0421 0.28063,0.0935 0.0318,0.0514 0.13952,0.0935 0.23938,0.0935 0.0999,0 0.18173,0.0316 0.18192,0.0702 1.9e-4,0.0386 0.20014,0.14682 0.44433,0.24053 0.2442,0.0937 0.51708,0.20946 0.60642,0.25724 0.0893,0.0478 0.22672,0.0869 0.30529,0.0869 0.0786,0 0.22648,0.0421 0.32868,0.0935 0.1022,0.0514 0.26943,0.13565 0.37163,0.18709 0.10221,0.0515 0.25011,0.0935 0.32868,0.0935 0.0786,0 0.21595,0.0383 0.30529,0.0852 0.22304,0.11702 1.23287,0.57322 1.51882,0.68615 0.12863,0.0508 0.30696,0.12955 0.3963,0.17499 0.0893,0.0454 0.22614,0.0826 0.30402,0.0826 0.0779,0 0.14158,0.0421 0.14158,0.0935 0,0.0515 0.0842,0.0935 0.18709,0.0935 0.1029,0 0.18709,0.0421 0.18709,0.0935 0,0.0514 0.064,0.0935 0.14217,0.0935 0.0782,0 0.2992,0.0978 0.49111,0.21731 0.19191,0.11952 0.43312,0.25232 0.53602,0.29511 0.16784,0.0698 0.17024,0.0818 0.0234,0.11696 -0.26709,0.0639 -0.18998,0.28599 0.27005,0.7778 0.44108,0.47155 0.45786,0.60819 0.034,0.27662 -0.12862,-0.10061 -0.28648,-0.18386 -0.35079,-0.185 -0.0643,-0.001 -0.11693,-0.0442 -0.11693,-0.0956 0,-0.0515 -0.0631,-0.0935 -0.14032,-0.0935 -0.0772,0 -0.14032,-0.0421 -0.14032,-0.0935 0,-0.0515 -0.0807,-0.0935 -0.17929,-0.0935 -0.0986,0 -0.19332,-0.0357 -0.21047,-0.0794 -0.0443,-0.11281 -0.89934,-0.57545 -1.06349,-0.57545 -0.0753,0 -0.137,-0.0421 -0.137,-0.0935 0,-0.0515 -0.0842,-0.0935 -0.18709,-0.0935 -0.1029,0 -0.18709,-0.0421 -0.18709,-0.0935 0,-0.0514 -0.0817,-0.0935 -0.18156,-0.0935 -0.0999,0 -0.20759,-0.0421 -0.23939,-0.0935 -0.0318,-0.0515 -0.13601,-0.0935 -0.23158,-0.0935 -0.0956,0 -0.18781,-0.0316 -0.20496,-0.0702 -0.0524,-0.11789 -0.73987,-0.40422 -0.83273,-0.34683 -0.11717,0.0724 -0.11165,0.51053 0.006,0.51053 0.0514,0 0.0935,0.0842 0.0935,0.18709 0,0.10289 0.0421,0.18708 0.0935,0.18708 0.0515,0 0.0935,0.0848 0.0935,0.18836 0,0.1036 0.0369,0.26146 0.0821,0.35079 0.29665,0.58719 0.44037,1.87608 0.34152,3.06273 -0.0492,0.59027 -0.10013,0.79471 -0.19812,0.79471 -0.0726,0 -0.13192,0.0421 -0.13192,0.0935 0,0.0515 -0.0439,0.0935 -0.0976,0.0935 -0.23734,0 -0.54168,0.43548 -0.58837,0.84189 -0.0976,0.85011 -0.19874,1.16599 -0.38457,1.20178 -0.20769,0.04 -0.42614,0.23636 -0.42614,0.38307 0,0.0558 -0.0421,0.18511 -0.0935,0.28731 -0.0514,0.1022 -0.13564,0.26944 -0.18709,0.37164 -0.0514,0.1022 -0.0935,0.25254 -0.0935,0.33409 0,0.26205 -0.28539,0.45721 -0.62573,0.42788 -0.26165,-0.0225 -0.3678,0.0283 -0.59332,0.28412 -0.15107,0.17136 -0.27534,0.36419 -0.27616,0.4285 -8e-4,0.0643 -0.0436,0.11693 -0.095,0.11693 -0.0514,0 -0.0935,0.0637 -0.0935,0.14159 0,0.0779 -0.0421,0.2252 -0.0935,0.32741 -0.0514,0.1022 -0.13564,0.26943 -0.18709,0.37163 -0.0515,0.1022 -0.0935,0.2681 -0.0935,0.36866 0,0.10056 -0.0421,0.20885 -0.0935,0.24065 -0.0514,0.0318 -0.0935,0.19424 -0.0935,0.36099 0,0.16675 -0.0393,0.34316 -0.0873,0.39204 -0.048,0.0489 -0.10408,0.25725 -0.12459,0.46305 -0.0331,0.33201 -0.0391,0.33992 -0.053,0.0702 z"
           id="path4843"
           inkscape:connector-curvature="0" />
        <path
           style="opacity:1;fill:#ff9191;fill-opacity:1;stroke:#ffffff;stroke-width:3.79999995;stroke-linecap:round;stroke-linejoin:round;stroke-miterlimit:4;stroke-dasharray:none;stroke-dashoffset:0;stroke-opacity:1;paint-order:stroke fill markers"
           d="m 144.47535,257.52296 c -2.2751,-0.25304 -4.38572,-2.76215 -4.38572,-5.21375 0,-1.00791 0.49287,-2.79866 1.09526,-3.97945 0.6024,-1.18079 0.97296,-2.46561 0.82348,-2.85515 -0.14948,-0.38954 0.0125,-0.81432 0.35995,-0.94395 0.34745,-0.12964 -0.0542,-0.50814 -0.89259,-0.84112 -3.14634,-1.24965 -4.5611,-2.65804 -4.5611,-4.54057 0,-2.50101 0.44149,-3.37431 2.15341,-4.25958 1.41457,-0.7315 1.66847,-0.67253 4.66446,1.08337 3.37979,1.98084 4.05023,3.04906 3.49636,5.57079 -0.34436,1.56786 -0.33242,1.57768 1.1512,0.94661 0.82453,-0.35072 2.09447,-1.15897 2.82207,-1.7961 2.97206,-2.60253 6.02203,-3.15696 13.17457,-2.39489 5.09726,0.54309 9.52253,2.17255 11.33286,4.17295 0.81569,0.90132 0.75517,0.95926 -1.10665,1.05942 -5.85273,0.31486 -8.07208,0.54543 -10.80581,1.12263 -3.49803,0.73858 -7.63293,0.17786 -10.87125,-1.4742 -1.8985,-0.96854 -2.94917,-0.89971 -4.33642,0.2841 -0.1273,0.10863 0.56758,0.86458 1.54418,1.67988 1.30392,1.08856 1.84589,2.03455 2.04009,3.5609 0.27041,2.12533 0.29907,7.10736 0.0477,8.29625 -0.13974,0.66097 -4.09774,0.92763 -7.74608,0.52186 z"
           id="path4845"
           inkscape:connector-curvature="0" />
      </g>
      <text
         transform="scale(1.0462176,0.95582411)"
         id="text4512"
         y="215.56303"
         x="152.40099"
         style="font-style:normal;font-variant:normal;font-weight:normal;font-stretch:normal;font-size:78.48815155px;line-height:79.71453094px;font-family:AMEMUCHIGOTHICMONO-02;-inkscape-font-specification:'AMEMUCHIGOTHICMONO-02, Normal';font-variant-ligatures:normal;font-variant-caps:normal;font-variant-numeric:normal;font-feature-settings:normal;text-align:start;letter-spacing:0px;word-spacing:0px;writing-mode:lr-tb;text-anchor:start;fill:#ffc22d;fill-opacity:1;stroke:none;stroke-width:1.22637737"
         xml:space="preserve"
         inkscape:export-xdpi="96"
         inkscape:export-ydpi="96"><tspan
           style="font-style:normal;font-variant:normal;font-weight:normal;font-stretch:normal;font-size:78.48815155px;font-family:'Viner Hand ITC';-inkscape-font-specification:'Viner Hand ITC, Normal';font-variant-ligatures:normal;font-variant-caps:normal;font-variant-numeric:normal;font-feature-settings:normal;text-align:start;writing-mode:lr-tb;text-anchor:start;fill:#ffc22d;fill-opacity:1;stroke-width:1.22637737"
           y="215.56303"
           x="152.40099"
           id="tspan4510"
           sodipodi:role="line">S</tspan></text>
      <text
         id="text4506"
         y="172.60039"
         x="115.99496"
         style="font-style:normal;font-variant:normal;font-weight:normal;font-stretch:normal;font-size:73.14459229px;line-height:74.28748322px;font-family:AMEMUCHIGOTHICMONO-02;-inkscape-font-specification:'AMEMUCHIGOTHICMONO-02, Normal';font-variant-ligatures:normal;font-variant-caps:normal;font-variant-numeric:normal;font-feature-settings:normal;text-align:start;letter-spacing:0px;word-spacing:0px;writing-mode:lr-tb;text-anchor:start;fill:#ffc22d;fill-opacity:1;stroke:none;stroke-width:1.14288425"
         xml:space="preserve"
         inkscape:export-xdpi="96"
         inkscape:export-ydpi="96"><tspan
           style="font-style:normal;font-variant:normal;font-weight:normal;font-stretch:normal;font-size:73.14459229px;font-family:'Viner Hand ITC';-inkscape-font-specification:'Viner Hand ITC, Normal';font-variant-ligatures:normal;font-variant-caps:normal;font-variant-numeric:normal;font-feature-settings:normal;text-align:start;writing-mode:lr-tb;text-anchor:start;fill:#ffc22d;fill-opacity:1;stroke-width:1.14288425"
           y="172.60039"
           x="115.99496"
           id="tspan4504"
           sodipodi:role="line">M</tspan><tspan
           id="tspan4508"
           style="fill:#ffc22d;fill-opacity:1;stroke-width:1.14288425"
           y="268.97696"
           x="115.99496"
           sodipodi:role="line" /></text>
      <text
         id="text4502"
         y="138.90826"
         x="81.977242"
         style="font-style:normal;font-variant:normal;font-weight:normal;font-stretch:normal;font-size:70.17409515px;line-height:71.27056122px;font-family:AMEMUCHIGOTHICMONO-02;-inkscape-font-specification:'AMEMUCHIGOTHICMONO-02, Normal';font-variant-ligatures:normal;font-variant-caps:normal;font-variant-numeric:normal;font-feature-settings:normal;text-align:start;letter-spacing:0px;word-spacing:0px;writing-mode:lr-tb;text-anchor:start;fill:#ffc22d;fill-opacity:1;stroke:none;stroke-width:1.09647024"
         xml:space="preserve"
         inkscape:export-xdpi="96"
         inkscape:export-ydpi="96"><tspan
           style="font-style:normal;font-variant:normal;font-weight:normal;font-stretch:normal;font-size:70.17409515px;font-family:'Viner Hand ITC';-inkscape-font-specification:'Viner Hand ITC, Normal';font-variant-ligatures:normal;font-variant-caps:normal;font-variant-numeric:normal;font-feature-settings:normal;text-align:start;writing-mode:lr-tb;text-anchor:start;fill:#ffc22d;fill-opacity:1;stroke-width:1.09647024"
           y="138.90826"
           x="81.977242"
           id="tspan4500"
           sodipodi:role="line">L</tspan></text>
    </g>
    <text
       xml:space="preserve"
       style="font-style:normal;font-variant:normal;font-weight:normal;font-stretch:normal;font-size:56.2936554px;line-height:57.17324448px;font-family:AMEMUCHIGOTHICMONO-02;-inkscape-font-specification:'AMEMUCHIGOTHICMONO-02, Normal';font-variant-ligatures:normal;font-variant-caps:normal;font-variant-numeric:normal;font-feature-settings:normal;text-align:start;letter-spacing:0px;word-spacing:0px;writing-mode:lr-tb;text-anchor:start;fill:#ffc22d;fill-opacity:1;stroke:none;stroke-width:0.87958837"
       x="23.012074"
       y="51.377266"
       id="text4542"><tspan
         sodipodi:role="line"
         x="23.012074"
         y="51.377266"
         style="font-style:normal;font-variant:normal;font-weight:bold;font-stretch:condensed;font-size:56.29275131px;font-family:'Tekton Pro';-inkscape-font-specification:'Tekton Pro, Bold Condensed';font-variant-ligatures:normal;font-variant-caps:normal;font-variant-numeric:normal;font-feature-settings:normal;text-align:start;writing-mode:lr-tb;text-anchor:start;fill:#ffc22d;fill-opacity:1;stroke-width:0.87958837"
         id="tspan4546">Management</tspan></text>
    <text
       id="text4554"
       y="7.7277174"
       x="23.180952"
       style="font-style:normal;font-variant:normal;font-weight:normal;font-stretch:normal;font-size:56.2936554px;line-height:57.17324448px;font-family:AMEMUCHIGOTHICMONO-02;-inkscape-font-specification:'AMEMUCHIGOTHICMONO-02, Normal';font-variant-ligatures:normal;font-variant-caps:normal;font-variant-numeric:normal;font-feature-settings:normal;text-align:start;letter-spacing:0px;word-spacing:0px;writing-mode:lr-tb;text-anchor:start;fill:#ffc22d;fill-opacity:1;stroke:none;stroke-width:0.87958837"
       xml:space="preserve"><tspan
         id="tspan4552"
         style="font-style:normal;font-variant:normal;font-weight:bold;font-stretch:condensed;font-size:56.29275131px;font-family:'Tekton Pro';-inkscape-font-specification:'Tekton Pro, Bold Condensed';font-variant-ligatures:normal;font-variant-caps:normal;font-variant-numeric:normal;font-feature-settings:normal;text-align:start;writing-mode:lr-tb;text-anchor:start;fill:#ffc22d;fill-opacity:1;stroke-width:0.87958837"
         y="7.7277174"
         x="23.180952"
         sodipodi:role="line">London</tspan></text>
    <text
       xml:space="preserve"
       style="font-style:normal;font-variant:normal;font-weight:normal;font-stretch:normal;font-size:56.2936554px;line-height:57.17324448px;font-family:AMEMUCHIGOTHICMONO-02;-inkscape-font-specification:'AMEMUCHIGOTHICMONO-02, Normal';font-variant-ligatures:normal;font-variant-caps:normal;font-variant-numeric:normal;font-feature-settings:normal;text-align:start;letter-spacing:0px;word-spacing:0px;writing-mode:lr-tb;text-anchor:start;fill:#ffc22d;fill-opacity:1;stroke:none;stroke-width:0.87958837"
       x="23.969051"
       y="100.6897"
       id="text4562"><tspan
         sodipodi:role="line"
         x="23.969051"
         y="100.6897"
         style="font-style:normal;font-variant:normal;font-weight:bold;font-stretch:condensed;font-size:56.29275131px;font-family:'Tekton Pro';-inkscape-font-specification:'Tekton Pro, Bold Condensed';font-variant-ligatures:normal;font-variant-caps:normal;font-variant-numeric:normal;font-feature-settings:normal;text-align:start;writing-mode:lr-tb;text-anchor:start;fill:#ffc22d;fill-opacity:1;stroke-width:0.87958837"
         id="tspan4560">School</tspan></text>
  </g>
</svg>
